<mxfile host="65bd71144e" pages="2">
    <diagram id="PErDwY-s0SS6c3Ma57UF" name="Page-1">
        <mxGraphModel dx="2185" dy="790" grid="1" gridSize="10" guides="1" tooltips="1" connect="1" arrows="1" fold="1" page="1" pageScale="1" pageWidth="827" pageHeight="1169" math="0" shadow="0">
            <root>
                <mxCell id="0"/>
                <mxCell id="1" parent="0"/>
                <mxCell id="liT73C5ILRIBMMw8ay9D-2" value="Footnote 2" style="rounded=1;whiteSpace=wrap;html=1;labelBackgroundColor=none;fontColor=#000000;" vertex="1" parent="1">
                    <mxGeometry x="1020" y="952.5" width="90" height="25" as="geometry"/>
                </mxCell>
                <mxCell id="liT73C5ILRIBMMw8ay9D-3" value="" style="endArrow=classic;html=1;exitX=0.5;exitY=0;exitDx=0;exitDy=0;entryX=0.266;entryY=0.988;entryDx=0;entryDy=0;entryPerimeter=0;" edge="1" parent="1" source="liT73C5ILRIBMMw8ay9D-89" target="liT73C5ILRIBMMw8ay9D-9">
                    <mxGeometry width="50" height="50" relative="1" as="geometry">
                        <mxPoint x="140" y="770" as="sourcePoint"/>
                        <mxPoint x="190" y="720" as="targetPoint"/>
                    </mxGeometry>
                </mxCell>
                <mxCell id="liT73C5ILRIBMMw8ay9D-4" value="" style="edgeStyle=none;html=1;exitX=1;exitY=0;exitDx=0;exitDy=0;" edge="1" parent="1" source="liT73C5ILRIBMMw8ay9D-9" target="liT73C5ILRIBMMw8ay9D-12">
                    <mxGeometry relative="1" as="geometry"/>
                </mxCell>
                <mxCell id="liT73C5ILRIBMMw8ay9D-5" style="edgeStyle=none;html=1;exitX=0;exitY=0;exitDx=0;exitDy=0;entryX=0.909;entryY=0.8;entryDx=0;entryDy=0;entryPerimeter=0;" edge="1" parent="1" source="liT73C5ILRIBMMw8ay9D-9" target="liT73C5ILRIBMMw8ay9D-35">
                    <mxGeometry relative="1" as="geometry"/>
                </mxCell>
                <mxCell id="liT73C5ILRIBMMw8ay9D-6" style="edgeStyle=none;html=1;entryX=0.5;entryY=1;entryDx=0;entryDy=0;" edge="1" parent="1" source="liT73C5ILRIBMMw8ay9D-9" target="liT73C5ILRIBMMw8ay9D-50">
                    <mxGeometry relative="1" as="geometry">
                        <mxPoint x="470" y="340" as="targetPoint"/>
                    </mxGeometry>
                </mxCell>
                <mxCell id="liT73C5ILRIBMMw8ay9D-7" style="edgeStyle=none;html=1;entryX=1;entryY=1;entryDx=0;entryDy=0;exitX=0.264;exitY=0.033;exitDx=0;exitDy=0;exitPerimeter=0;" edge="1" parent="1" source="liT73C5ILRIBMMw8ay9D-9" target="liT73C5ILRIBMMw8ay9D-67">
                    <mxGeometry relative="1" as="geometry"/>
                </mxCell>
                <mxCell id="liT73C5ILRIBMMw8ay9D-8" style="edgeStyle=none;html=1;entryX=0;entryY=0.5;entryDx=0;entryDy=0;exitX=0.948;exitY=0.233;exitDx=0;exitDy=0;exitPerimeter=0;" edge="1" parent="1" source="liT73C5ILRIBMMw8ay9D-9" target="liT73C5ILRIBMMw8ay9D-80">
                    <mxGeometry relative="1" as="geometry"/>
                </mxCell>
                <mxCell id="liT73C5ILRIBMMw8ay9D-9" value="&amp;lt;https://www.yelp.com/biz/CpCFYyWjzo0CKbum1ZJiMw&amp;gt;" style="ellipse;whiteSpace=wrap;html=1;" vertex="1" parent="1">
                    <mxGeometry x="309" y="440" width="330" height="30" as="geometry"/>
                </mxCell>
                <mxCell id="liT73C5ILRIBMMw8ay9D-10" value="" style="edgeStyle=none;html=1;exitX=1;exitY=0;exitDx=0;exitDy=0;entryX=0;entryY=0.5;entryDx=0;entryDy=0;" edge="1" parent="1" source="liT73C5ILRIBMMw8ay9D-12" target="liT73C5ILRIBMMw8ay9D-14">
                    <mxGeometry relative="1" as="geometry">
                        <mxPoint x="1609" y="285" as="sourcePoint"/>
                    </mxGeometry>
                </mxCell>
                <mxCell id="liT73C5ILRIBMMw8ay9D-11" value="" style="edgeStyle=none;html=1;" edge="1" parent="1" source="liT73C5ILRIBMMw8ay9D-12" target="liT73C5ILRIBMMw8ay9D-27">
                    <mxGeometry relative="1" as="geometry"/>
                </mxCell>
                <mxCell id="liT73C5ILRIBMMw8ay9D-12" value="&amp;nbsp;_:business_att_BusinessParking_Street95413" style="ellipse;whiteSpace=wrap;html=1;" vertex="1" parent="1">
                    <mxGeometry x="739" y="335" width="270" height="30" as="geometry"/>
                </mxCell>
                <mxCell id="liT73C5ILRIBMMw8ay9D-13" value="&quot;39.970441&quot;^^&amp;lt;http://www.w3.org/2001/XMLSchema#float&amp;gt;" style="ellipse;whiteSpace=wrap;html=1;" vertex="1" parent="1">
                    <mxGeometry x="450" y="659.5" width="340" height="25" as="geometry"/>
                </mxCell>
                <mxCell id="liT73C5ILRIBMMw8ay9D-14" value="&amp;lt;http://dbpedia.org/resource/Street&amp;gt;" style="ellipse;whiteSpace=wrap;html=1;" vertex="1" parent="1">
                    <mxGeometry x="1190" y="270" width="220" height="30" as="geometry"/>
                </mxCell>
                <mxCell id="liT73C5ILRIBMMw8ay9D-15" value="&amp;lt;https://schema.org/ParkingFacility&amp;gt;" style="text;whiteSpace=wrap;html=1;" vertex="1" parent="1">
                    <mxGeometry x="610" y="390" width="220" height="30" as="geometry"/>
                </mxCell>
                <mxCell id="liT73C5ILRIBMMw8ay9D-16" value="&amp;lt;https://schema.org/additionalType&amp;gt;" style="text;whiteSpace=wrap;html=1;rotation=0;" vertex="1" parent="1">
                    <mxGeometry x="970" y="290" width="220" height="30" as="geometry"/>
                </mxCell>
                <mxCell id="liT73C5ILRIBMMw8ay9D-17" value="&amp;lt;https://schema.org/latitude&amp;gt;" style="text;whiteSpace=wrap;html=1;" vertex="1" parent="1">
                    <mxGeometry x="470" y="560" width="180" height="30" as="geometry"/>
                </mxCell>
                <mxCell id="liT73C5ILRIBMMw8ay9D-18" value="&quot;-74.908819&quot;^^&amp;lt;http://www.w3.org/2001/XMLSchema#float&amp;gt;" style="ellipse;whiteSpace=wrap;html=1;" vertex="1" parent="1">
                    <mxGeometry x="620" y="600" width="350" height="45" as="geometry"/>
                </mxCell>
                <mxCell id="liT73C5ILRIBMMw8ay9D-19" value="&amp;lt;https://schema.org/value&amp;gt;" style="text;whiteSpace=wrap;html=1;" vertex="1" parent="1">
                    <mxGeometry x="1020" y="325" width="170" height="30" as="geometry"/>
                </mxCell>
                <mxCell id="liT73C5ILRIBMMw8ay9D-20" value="" style="endArrow=classic;html=1;exitX=0.758;exitY=0.967;exitDx=0;exitDy=0;exitPerimeter=0;entryX=0.22;entryY=0.111;entryDx=0;entryDy=0;entryPerimeter=0;" edge="1" parent="1" source="liT73C5ILRIBMMw8ay9D-9" target="liT73C5ILRIBMMw8ay9D-18">
                    <mxGeometry width="50" height="50" relative="1" as="geometry">
                        <mxPoint x="540" y="520" as="sourcePoint"/>
                        <mxPoint x="590" y="470" as="targetPoint"/>
                    </mxGeometry>
                </mxCell>
                <mxCell id="liT73C5ILRIBMMw8ay9D-21" value="&amp;lt;https://schema.org/longitude&amp;gt;" style="text;whiteSpace=wrap;html=1;" vertex="1" parent="1">
                    <mxGeometry x="530" y="510" width="190" height="30" as="geometry"/>
                </mxCell>
                <mxCell id="liT73C5ILRIBMMw8ay9D-22" value="&quot;2&quot;" style="ellipse;whiteSpace=wrap;html=1;" vertex="1" parent="1">
                    <mxGeometry x="850" y="445" width="40" height="20" as="geometry"/>
                </mxCell>
                <mxCell id="liT73C5ILRIBMMw8ay9D-23" value="" style="endArrow=classic;html=1;exitX=1;exitY=0.5;exitDx=0;exitDy=0;entryX=0;entryY=0.5;entryDx=0;entryDy=0;" edge="1" parent="1" source="liT73C5ILRIBMMw8ay9D-9" target="liT73C5ILRIBMMw8ay9D-22">
                    <mxGeometry width="50" height="50" relative="1" as="geometry">
                        <mxPoint x="710" y="460" as="sourcePoint"/>
                        <mxPoint x="760" y="410" as="targetPoint"/>
                    </mxGeometry>
                </mxCell>
                <mxCell id="liT73C5ILRIBMMw8ay9D-24" value="&amp;lt;https://schema.org/priceRange&amp;gt;" style="text;whiteSpace=wrap;html=1;" vertex="1" parent="1">
                    <mxGeometry x="650" y="435" width="200" height="30" as="geometry"/>
                </mxCell>
                <mxCell id="liT73C5ILRIBMMw8ay9D-25" value="" style="endArrow=classic;html=1;exitX=0;exitY=1;exitDx=0;exitDy=0;entryX=0.613;entryY=0.05;entryDx=0;entryDy=0;entryPerimeter=0;" edge="1" parent="1" source="liT73C5ILRIBMMw8ay9D-9" target="liT73C5ILRIBMMw8ay9D-26">
                    <mxGeometry width="50" height="50" relative="1" as="geometry">
                        <mxPoint x="140" y="570" as="sourcePoint"/>
                        <mxPoint x="190" y="520" as="targetPoint"/>
                    </mxGeometry>
                </mxCell>
                <mxCell id="liT73C5ILRIBMMw8ay9D-26" value="&quot;68 Centerton Rd&quot;^^&amp;lt;http://www.w3.org/2001/XMLSchema#string&amp;gt;" style="ellipse;whiteSpace=wrap;html=1;" vertex="1" parent="1">
                    <mxGeometry x="-70" y="607.5" width="390" height="30" as="geometry"/>
                </mxCell>
                <mxCell id="liT73C5ILRIBMMw8ay9D-27" value="&quot;true&quot;^^&amp;lt;http://www.w3.org/2001/XMLSchema#boolean&amp;gt;" style="ellipse;whiteSpace=wrap;html=1;" vertex="1" parent="1">
                    <mxGeometry x="1170" y="335" width="340" height="30" as="geometry"/>
                </mxCell>
                <mxCell id="liT73C5ILRIBMMw8ay9D-28" value="&amp;lt;https://schema.org/streetAddress&amp;gt;" style="text;whiteSpace=wrap;html=1;" vertex="1" parent="1">
                    <mxGeometry x="150" y="520" width="220" height="30" as="geometry"/>
                </mxCell>
                <mxCell id="liT73C5ILRIBMMw8ay9D-29" value="&quot;08054&quot;^^&amp;lt;http://www.w3.org/2001/XMLSchema#string&amp;gt;" style="ellipse;whiteSpace=wrap;html=1;" vertex="1" parent="1">
                    <mxGeometry x="-260" y="437.5" width="320" height="35" as="geometry"/>
                </mxCell>
                <mxCell id="liT73C5ILRIBMMw8ay9D-30" value="" style="endArrow=classic;html=1;entryX=1;entryY=0.5;entryDx=0;entryDy=0;exitX=0;exitY=0.5;exitDx=0;exitDy=0;" edge="1" parent="1" source="liT73C5ILRIBMMw8ay9D-9" target="liT73C5ILRIBMMw8ay9D-29">
                    <mxGeometry width="50" height="50" relative="1" as="geometry">
                        <mxPoint x="300" y="510" as="sourcePoint"/>
                        <mxPoint x="350" y="460" as="targetPoint"/>
                    </mxGeometry>
                </mxCell>
                <mxCell id="liT73C5ILRIBMMw8ay9D-31" value="&amp;lt;https://schema.org/postalCode&amp;gt;" style="text;whiteSpace=wrap;html=1;" vertex="1" parent="1">
                    <mxGeometry x="104" y="435" width="200" height="30" as="geometry"/>
                </mxCell>
                <mxCell id="liT73C5ILRIBMMw8ay9D-32" value="&quot;T J Maxx&quot;^^&amp;lt;http://www.w3.org/2001/XMLSchema#string&amp;gt;" style="ellipse;whiteSpace=wrap;html=1;" vertex="1" parent="1">
                    <mxGeometry x="930" y="530" width="350" height="30" as="geometry"/>
                </mxCell>
                <mxCell id="liT73C5ILRIBMMw8ay9D-33" value="" style="endArrow=classic;html=1;exitX=0.9;exitY=0.833;exitDx=0;exitDy=0;exitPerimeter=0;entryX=0;entryY=0.5;entryDx=0;entryDy=0;" edge="1" parent="1" source="liT73C5ILRIBMMw8ay9D-9" target="liT73C5ILRIBMMw8ay9D-32">
                    <mxGeometry width="50" height="50" relative="1" as="geometry">
                        <mxPoint x="970" y="500" as="sourcePoint"/>
                        <mxPoint x="1020" y="450" as="targetPoint"/>
                    </mxGeometry>
                </mxCell>
                <mxCell id="liT73C5ILRIBMMw8ay9D-34" value="&amp;lt;https://schema.org/legalName&amp;gt;" style="text;whiteSpace=wrap;html=1;" vertex="1" parent="1">
                    <mxGeometry x="660" y="480" width="200" height="30" as="geometry"/>
                </mxCell>
                <mxCell id="liT73C5ILRIBMMw8ay9D-35" value="&quot;4.5&quot;^^&amp;lt;http://www.w3.org/2001/XMLSchema#string&amp;gt;" style="ellipse;whiteSpace=wrap;html=1;" vertex="1" parent="1">
                    <mxGeometry x="-190" y="390" width="340" height="20" as="geometry"/>
                </mxCell>
                <mxCell id="liT73C5ILRIBMMw8ay9D-36" value="&amp;lt;https://schema.org/starRating&amp;gt;" style="text;whiteSpace=wrap;html=1;" vertex="1" parent="1">
                    <mxGeometry x="120" y="407.5" width="200" height="30" as="geometry"/>
                </mxCell>
                <mxCell id="liT73C5ILRIBMMw8ay9D-37" value="&#10;&#10;&lt;span style=&quot;color: rgb(0, 0, 0); font-family: helvetica; font-size: 12px; font-style: normal; font-weight: 400; letter-spacing: normal; text-align: left; text-indent: 0px; text-transform: none; word-spacing: 0px; background-color: rgb(248, 249, 250); display: inline; float: none;&quot;&gt;&amp;lt;http://dbpedia.org/resource/New_Jersey&amp;gt;&lt;/span&gt;&#10;&#10;" style="ellipse;whiteSpace=wrap;html=1;" vertex="1" parent="1">
                    <mxGeometry x="125" y="295" width="260" height="30" as="geometry"/>
                </mxCell>
                <mxCell id="liT73C5ILRIBMMw8ay9D-38" value="" style="endArrow=classic;html=1;exitX=0.309;exitY=-0.033;exitDx=0;exitDy=0;exitPerimeter=0;entryX=0.831;entryY=0.933;entryDx=0;entryDy=0;entryPerimeter=0;" edge="1" parent="1" source="liT73C5ILRIBMMw8ay9D-9" target="liT73C5ILRIBMMw8ay9D-37">
                    <mxGeometry width="50" height="50" relative="1" as="geometry">
                        <mxPoint x="370" y="500" as="sourcePoint"/>
                        <mxPoint x="240" y="320" as="targetPoint"/>
                    </mxGeometry>
                </mxCell>
                <mxCell id="liT73C5ILRIBMMw8ay9D-39" value="&amp;lt;https://schema.org/addressRegion&amp;gt;" style="text;whiteSpace=wrap;html=1;" vertex="1" parent="1">
                    <mxGeometry x="250" y="365" width="220" height="30" as="geometry"/>
                </mxCell>
                <mxCell id="liT73C5ILRIBMMw8ay9D-40" value="_:business_att_BusinessParking_Lot95413" style="ellipse;whiteSpace=wrap;html=1;" vertex="1" parent="1">
                    <mxGeometry x="540" y="250" width="290" height="30" as="geometry"/>
                </mxCell>
                <mxCell id="liT73C5ILRIBMMw8ay9D-41" value="" style="endArrow=classic;html=1;entryX=0.5;entryY=1;entryDx=0;entryDy=0;exitX=0.706;exitY=0;exitDx=0;exitDy=0;exitPerimeter=0;" edge="1" parent="1" source="liT73C5ILRIBMMw8ay9D-9" target="liT73C5ILRIBMMw8ay9D-40">
                    <mxGeometry width="50" height="50" relative="1" as="geometry">
                        <mxPoint x="820" y="530" as="sourcePoint"/>
                        <mxPoint x="870" y="480" as="targetPoint"/>
                    </mxGeometry>
                </mxCell>
                <mxCell id="liT73C5ILRIBMMw8ay9D-42" value="" style="edgeStyle=none;html=1;exitX=1;exitY=0;exitDx=0;exitDy=0;" edge="1" parent="1" source="liT73C5ILRIBMMw8ay9D-40" target="liT73C5ILRIBMMw8ay9D-45">
                    <mxGeometry relative="1" as="geometry">
                        <mxPoint x="820" y="200" as="sourcePoint"/>
                    </mxGeometry>
                </mxCell>
                <mxCell id="liT73C5ILRIBMMw8ay9D-43" value="&amp;lt;http://dbpedia.org/resource/Parking_lot&amp;gt;" style="ellipse;whiteSpace=wrap;html=1;" vertex="1" parent="1">
                    <mxGeometry x="1001" y="120" width="249" height="30" as="geometry"/>
                </mxCell>
                <mxCell id="liT73C5ILRIBMMw8ay9D-44" value="&amp;lt;https://schema.org/value&amp;gt;" style="text;whiteSpace=wrap;html=1;" vertex="1" parent="1">
                    <mxGeometry x="839" y="220" width="170" height="30" as="geometry"/>
                </mxCell>
                <mxCell id="liT73C5ILRIBMMw8ay9D-45" value="&quot;true&quot;^^&amp;lt;http://www.w3.org/2001/XMLSchema#boolean&amp;gt;" style="ellipse;whiteSpace=wrap;html=1;" vertex="1" parent="1">
                    <mxGeometry x="981" y="185" width="340" height="30" as="geometry"/>
                </mxCell>
                <mxCell id="liT73C5ILRIBMMw8ay9D-46" value="&amp;lt;https://schema.org/additionalType&amp;gt;" style="text;whiteSpace=wrap;html=1;" vertex="1" parent="1">
                    <mxGeometry x="760" y="170" width="220" height="30" as="geometry"/>
                </mxCell>
                <mxCell id="liT73C5ILRIBMMw8ay9D-47" value="" style="endArrow=classic;html=1;exitX=0.5;exitY=0;exitDx=0;exitDy=0;entryX=0;entryY=0.5;entryDx=0;entryDy=0;" edge="1" parent="1" source="liT73C5ILRIBMMw8ay9D-40" target="liT73C5ILRIBMMw8ay9D-43">
                    <mxGeometry width="50" height="50" relative="1" as="geometry">
                        <mxPoint x="750" y="185" as="sourcePoint"/>
                        <mxPoint x="800" y="135" as="targetPoint"/>
                    </mxGeometry>
                </mxCell>
                <mxCell id="liT73C5ILRIBMMw8ay9D-48" style="edgeStyle=none;html=1;entryX=0;entryY=1;entryDx=0;entryDy=0;exitX=1;exitY=0;exitDx=0;exitDy=0;" edge="1" parent="1" source="liT73C5ILRIBMMw8ay9D-50" target="liT73C5ILRIBMMw8ay9D-52">
                    <mxGeometry relative="1" as="geometry"/>
                </mxCell>
                <mxCell id="liT73C5ILRIBMMw8ay9D-49" style="edgeStyle=none;html=1;entryX=0.5;entryY=1;entryDx=0;entryDy=0;exitX=0.5;exitY=0;exitDx=0;exitDy=0;" edge="1" parent="1" source="liT73C5ILRIBMMw8ay9D-50" target="liT73C5ILRIBMMw8ay9D-54">
                    <mxGeometry relative="1" as="geometry"/>
                </mxCell>
                <mxCell id="liT73C5ILRIBMMw8ay9D-50" value="_:business_att_BikeParking95413" style="ellipse;whiteSpace=wrap;html=1;" vertex="1" parent="1">
                    <mxGeometry x="364" y="215" width="220" height="30" as="geometry"/>
                </mxCell>
                <mxCell id="liT73C5ILRIBMMw8ay9D-51" value="&amp;lt;https://schema.org/ParkingFacility&amp;gt;" style="text;whiteSpace=wrap;html=1;" vertex="1" parent="1">
                    <mxGeometry x="370" y="320" width="220" height="30" as="geometry"/>
                </mxCell>
                <mxCell id="liT73C5ILRIBMMw8ay9D-52" value="&quot;false&quot;^^&amp;lt;http://www.w3.org/2001/XMLSchema#boolean&amp;gt;" style="ellipse;whiteSpace=wrap;html=1;" vertex="1" parent="1">
                    <mxGeometry x="600" y="90" width="335" height="30" as="geometry"/>
                </mxCell>
                <mxCell id="liT73C5ILRIBMMw8ay9D-53" value="&amp;lt;https://schema.org/value&amp;gt;" style="text;whiteSpace=wrap;html=1;" vertex="1" parent="1">
                    <mxGeometry x="520" y="155" width="170" height="30" as="geometry"/>
                </mxCell>
                <mxCell id="liT73C5ILRIBMMw8ay9D-54" value="&amp;lt;http://dbpedia.org/resource/Bicycle&amp;gt;" style="ellipse;whiteSpace=wrap;html=1;" vertex="1" parent="1">
                    <mxGeometry x="400" y="65" width="220" height="25" as="geometry"/>
                </mxCell>
                <mxCell id="liT73C5ILRIBMMw8ay9D-55" value="&amp;lt;https://schema.org/additionalType&amp;gt;" style="text;whiteSpace=wrap;html=1;" vertex="1" parent="1">
                    <mxGeometry x="390" y="120" width="220" height="30" as="geometry"/>
                </mxCell>
                <mxCell id="liT73C5ILRIBMMw8ay9D-56" style="edgeStyle=none;html=1;entryX=0.5;entryY=1;entryDx=0;entryDy=0;exitX=1;exitY=0;exitDx=0;exitDy=0;" edge="1" parent="1" source="liT73C5ILRIBMMw8ay9D-58" target="liT73C5ILRIBMMw8ay9D-61">
                    <mxGeometry relative="1" as="geometry"/>
                </mxCell>
                <mxCell id="liT73C5ILRIBMMw8ay9D-57" style="edgeStyle=none;html=1;entryX=0.5;entryY=1;entryDx=0;entryDy=0;" edge="1" parent="1" source="liT73C5ILRIBMMw8ay9D-58" target="liT73C5ILRIBMMw8ay9D-62">
                    <mxGeometry relative="1" as="geometry"/>
                </mxCell>
                <mxCell id="liT73C5ILRIBMMw8ay9D-58" value="_:business_att_BusinessParking_Valet95413" style="ellipse;whiteSpace=wrap;html=1;" vertex="1" parent="1">
                    <mxGeometry x="95" y="185" width="290" height="30" as="geometry"/>
                </mxCell>
                <mxCell id="liT73C5ILRIBMMw8ay9D-59" value="" style="endArrow=classic;html=1;exitX=0.421;exitY=0.033;exitDx=0;exitDy=0;exitPerimeter=0;entryX=1;entryY=1;entryDx=0;entryDy=0;" edge="1" parent="1" source="liT73C5ILRIBMMw8ay9D-9" target="liT73C5ILRIBMMw8ay9D-58">
                    <mxGeometry width="50" height="50" relative="1" as="geometry">
                        <mxPoint x="550" y="370" as="sourcePoint"/>
                        <mxPoint x="600" y="320" as="targetPoint"/>
                    </mxGeometry>
                </mxCell>
                <mxCell id="liT73C5ILRIBMMw8ay9D-60" value="&amp;lt;https://schema.org/ParkingFacility&amp;gt;" style="text;whiteSpace=wrap;html=1;" vertex="1" parent="1">
                    <mxGeometry x="240" y="260" width="220" height="30" as="geometry"/>
                </mxCell>
                <mxCell id="liT73C5ILRIBMMw8ay9D-61" value="&quot;false&quot;^^&amp;lt;http://www.w3.org/2001/XMLSchema#boolean&amp;gt;" style="ellipse;whiteSpace=wrap;html=1;" vertex="1" parent="1">
                    <mxGeometry x="170" y="30" width="340" height="30" as="geometry"/>
                </mxCell>
                <mxCell id="liT73C5ILRIBMMw8ay9D-62" value="&quot;Valet&quot;^^&amp;lt;http://www.w3.org/2001/XMLSchema#string&amp;gt;" style="ellipse;whiteSpace=wrap;html=1;" vertex="1" parent="1">
                    <mxGeometry x="-70" y="80" width="330" height="30" as="geometry"/>
                </mxCell>
                <mxCell id="liT73C5ILRIBMMw8ay9D-63" value="&amp;lt;https://schema.org/value&amp;gt;" style="text;whiteSpace=wrap;html=1;" vertex="1" parent="1">
                    <mxGeometry x="230" y="130" width="170" height="30" as="geometry"/>
                </mxCell>
                <mxCell id="liT73C5ILRIBMMw8ay9D-64" value="&amp;lt;https://schema.org/additionalType&amp;gt;" style="text;whiteSpace=wrap;html=1;" vertex="1" parent="1">
                    <mxGeometry x="40" y="120" width="220" height="30" as="geometry"/>
                </mxCell>
                <mxCell id="liT73C5ILRIBMMw8ay9D-65" style="edgeStyle=none;html=1;entryX=0.5;entryY=1;entryDx=0;entryDy=0;" edge="1" parent="1" source="liT73C5ILRIBMMw8ay9D-67" target="liT73C5ILRIBMMw8ay9D-72">
                    <mxGeometry relative="1" as="geometry"/>
                </mxCell>
                <mxCell id="liT73C5ILRIBMMw8ay9D-66" style="edgeStyle=none;html=1;entryX=0.5;entryY=1;entryDx=0;entryDy=0;exitX=0.133;exitY=0.357;exitDx=0;exitDy=0;exitPerimeter=0;" edge="1" parent="1" source="liT73C5ILRIBMMw8ay9D-67" target="liT73C5ILRIBMMw8ay9D-71">
                    <mxGeometry relative="1" as="geometry"/>
                </mxCell>
                <mxCell id="liT73C5ILRIBMMw8ay9D-67" value="_:business_att_BusinessParking_Validated95413" style="ellipse;whiteSpace=wrap;html=1;" vertex="1" parent="1">
                    <mxGeometry x="-260" y="217.5" width="300" height="35" as="geometry"/>
                </mxCell>
                <mxCell id="liT73C5ILRIBMMw8ay9D-68" value="&quot;2016-06-11 17:04:36&quot;^^&amp;lt;http://www.w3.org/2001/XMLSchema#dateTime&amp;gt;" style="ellipse;whiteSpace=wrap;html=1;" vertex="1" parent="1">
                    <mxGeometry x="220" y="700" width="460" height="20" as="geometry"/>
                </mxCell>
                <mxCell id="liT73C5ILRIBMMw8ay9D-69" value="&amp;lt;https://schema.org/ParkingFacility&amp;gt;" style="text;whiteSpace=wrap;html=1;" vertex="1" parent="1">
                    <mxGeometry x="-50" y="260" width="220" height="30" as="geometry"/>
                </mxCell>
                <mxCell id="liT73C5ILRIBMMw8ay9D-70" value="" style="endArrow=classic;html=1;exitX=0.541;exitY=1;exitDx=0;exitDy=0;exitPerimeter=0;entryX=0.5;entryY=0;entryDx=0;entryDy=0;" edge="1" parent="1" source="liT73C5ILRIBMMw8ay9D-9" target="liT73C5ILRIBMMw8ay9D-13">
                    <mxGeometry width="50" height="50" relative="1" as="geometry">
                        <mxPoint x="569.1399999999999" y="479.00999999999976" as="sourcePoint"/>
                        <mxPoint x="707" y="614.9949999999999" as="targetPoint"/>
                    </mxGeometry>
                </mxCell>
                <mxCell id="liT73C5ILRIBMMw8ay9D-71" value="&quot;Validated&quot;^^&amp;lt;http://www.w3.org/2001/XMLSchema#string&amp;gt;" style="ellipse;whiteSpace=wrap;html=1;" vertex="1" parent="1">
                    <mxGeometry x="-420" y="60" width="330" height="30" as="geometry"/>
                </mxCell>
                <mxCell id="liT73C5ILRIBMMw8ay9D-72" value="&quot;false&quot;^^&amp;lt;http://www.w3.org/2001/XMLSchema#boolean&amp;gt;" style="ellipse;whiteSpace=wrap;html=1;" vertex="1" parent="1">
                    <mxGeometry x="-236" y="10" width="340" height="30" as="geometry"/>
                </mxCell>
                <mxCell id="liT73C5ILRIBMMw8ay9D-73" value="&amp;lt;https://schema.org/value&amp;gt;" style="text;whiteSpace=wrap;html=1;" vertex="1" parent="1">
                    <mxGeometry x="-160" y="130" width="170" height="30" as="geometry"/>
                </mxCell>
                <mxCell id="liT73C5ILRIBMMw8ay9D-74" value="&amp;lt;https://schema.org/additionalType&amp;gt;" style="text;whiteSpace=wrap;html=1;" vertex="1" parent="1">
                    <mxGeometry x="-340" y="150" width="220" height="30" as="geometry"/>
                </mxCell>
                <mxCell id="liT73C5ILRIBMMw8ay9D-75" value="&lt;span&gt;Footnote 1&lt;/span&gt;" style="rounded=1;whiteSpace=wrap;html=1;" vertex="1" parent="1">
                    <mxGeometry x="410" y="720" width="80" height="20" as="geometry"/>
                </mxCell>
                <mxCell id="liT73C5ILRIBMMw8ay9D-76" value="" style="endArrow=classic;html=1;exitX=0.342;exitY=1;exitDx=0;exitDy=0;exitPerimeter=0;entryX=0.5;entryY=0;entryDx=0;entryDy=0;" edge="1" parent="1" source="liT73C5ILRIBMMw8ay9D-9" target="liT73C5ILRIBMMw8ay9D-68">
                    <mxGeometry width="50" height="50" relative="1" as="geometry">
                        <mxPoint x="360" y="780" as="sourcePoint"/>
                        <mxPoint x="410" y="730" as="targetPoint"/>
                    </mxGeometry>
                </mxCell>
                <mxCell id="liT73C5ILRIBMMw8ay9D-77" value="&amp;lt;https://schema.org/startTime&amp;gt;" style="text;whiteSpace=wrap;html=1;" vertex="1" parent="1">
                    <mxGeometry x="364" y="600" width="190" height="30" as="geometry"/>
                </mxCell>
                <mxCell id="liT73C5ILRIBMMw8ay9D-78" style="edgeStyle=none;html=1;entryX=0;entryY=0;entryDx=0;entryDy=0;" edge="1" parent="1" source="liT73C5ILRIBMMw8ay9D-80" target="liT73C5ILRIBMMw8ay9D-87">
                    <mxGeometry relative="1" as="geometry"/>
                </mxCell>
                <mxCell id="liT73C5ILRIBMMw8ay9D-79" style="edgeStyle=none;html=1;" edge="1" parent="1" source="liT73C5ILRIBMMw8ay9D-80" target="liT73C5ILRIBMMw8ay9D-86">
                    <mxGeometry relative="1" as="geometry"/>
                </mxCell>
                <mxCell id="liT73C5ILRIBMMw8ay9D-80" value="_:business_att_CreditCards95413" style="ellipse;whiteSpace=wrap;html=1;" vertex="1" parent="1">
                    <mxGeometry x="1060" y="400" width="260" height="30" as="geometry"/>
                </mxCell>
                <mxCell id="liT73C5ILRIBMMw8ay9D-81" value="&amp;lt;https://schema.org/paymentAccepted&amp;gt;" style="text;whiteSpace=wrap;html=1;" vertex="1" parent="1">
                    <mxGeometry x="810" y="415" width="240" height="30" as="geometry"/>
                </mxCell>
                <mxCell id="liT73C5ILRIBMMw8ay9D-82" style="edgeStyle=none;html=1;exitX=0;exitY=0.5;exitDx=0;exitDy=0;entryX=0.596;entryY=-0.09;entryDx=0;entryDy=0;entryPerimeter=0;" edge="1" parent="1" source="liT73C5ILRIBMMw8ay9D-85" target="liT73C5ILRIBMMw8ay9D-129">
                    <mxGeometry relative="1" as="geometry"/>
                </mxCell>
                <mxCell id="liT73C5ILRIBMMw8ay9D-83" style="edgeStyle=none;html=1;exitX=0;exitY=1;exitDx=0;exitDy=0;entryX=0.961;entryY=0.341;entryDx=0;entryDy=0;entryPerimeter=0;" edge="1" parent="1" source="liT73C5ILRIBMMw8ay9D-85" target="liT73C5ILRIBMMw8ay9D-129">
                    <mxGeometry relative="1" as="geometry"/>
                </mxCell>
                <mxCell id="liT73C5ILRIBMMw8ay9D-84" style="edgeStyle=none;html=1;exitX=0.279;exitY=0.949;exitDx=0;exitDy=0;entryX=0.837;entryY=1.008;entryDx=0;entryDy=0;entryPerimeter=0;exitPerimeter=0;" edge="1" parent="1" source="liT73C5ILRIBMMw8ay9D-85" target="liT73C5ILRIBMMw8ay9D-129">
                    <mxGeometry relative="1" as="geometry"/>
                </mxCell>
                <mxCell id="liT73C5ILRIBMMw8ay9D-85" value="&amp;lt;https://www.yelp.com/user_details?userid=KWKXZsjb-45fUyvvpM2ZBg&amp;gt;" style="ellipse;whiteSpace=wrap;html=1;" vertex="1" parent="1">
                    <mxGeometry x="-101" y="880" width="410" height="30" as="geometry"/>
                </mxCell>
                <mxCell id="liT73C5ILRIBMMw8ay9D-86" value="&quot;Credit_Card&quot;^^&amp;lt;http://www.w3.org/2001/XMLSchema#string&amp;gt;" style="ellipse;whiteSpace=wrap;html=1;" vertex="1" parent="1">
                    <mxGeometry x="1570" y="395" width="420" height="35" as="geometry"/>
                </mxCell>
                <mxCell id="liT73C5ILRIBMMw8ay9D-87" value="&quot;true&quot;^^&amp;lt;http://www.w3.org/2001/XMLSchema#boolean&amp;gt;" style="ellipse;whiteSpace=wrap;html=1;" vertex="1" parent="1">
                    <mxGeometry x="1410" y="495" width="350" height="35" as="geometry"/>
                </mxCell>
                <mxCell id="liT73C5ILRIBMMw8ay9D-88" value="&amp;lt;https://schema.org/additionalType&amp;gt;" style="text;whiteSpace=wrap;html=1;" vertex="1" parent="1">
                    <mxGeometry x="1350" y="395" width="220" height="30" as="geometry"/>
                </mxCell>
                <mxCell id="liT73C5ILRIBMMw8ay9D-89" value="_:52559" style="ellipse;whiteSpace=wrap;html=1;" vertex="1" parent="1">
                    <mxGeometry x="154" y="745" width="60" height="20" as="geometry"/>
                </mxCell>
                <mxCell id="liT73C5ILRIBMMw8ay9D-90" value="&quot;2012-08-19 19:02:05&quot;^^&amp;lt;http://www.w3.org/2001/XMLSchema#dateTime&amp;gt;" style="ellipse;whiteSpace=wrap;html=1;" vertex="1" parent="1">
                    <mxGeometry x="420" y="745" width="440" height="20" as="geometry"/>
                </mxCell>
                <mxCell id="liT73C5ILRIBMMw8ay9D-91" value="&quot;The lady at the fitting room could be a little less....aggressive?&quot;^^&amp;lt;http://www.w3.org/2001/XMLSchema#string&amp;gt;" style="ellipse;whiteSpace=wrap;html=1;" vertex="1" parent="1">
                    <mxGeometry x="400" y="830" width="390" height="60" as="geometry"/>
                </mxCell>
                <mxCell id="liT73C5ILRIBMMw8ay9D-92" value="&amp;lt;https://schema.org/value&amp;gt;" style="text;whiteSpace=wrap;html=1;rotation=0;" vertex="1" parent="1">
                    <mxGeometry x="1280" y="450" width="170" height="30" as="geometry"/>
                </mxCell>
                <mxCell id="liT73C5ILRIBMMw8ay9D-93" value="&quot;0&quot;^^&amp;lt;http://www.w3.org/2001/XMLSchema#int&amp;gt;" style="ellipse;whiteSpace=wrap;html=1;" vertex="1" parent="1">
                    <mxGeometry x="-430" y="740" width="280" height="30" as="geometry"/>
                </mxCell>
                <mxCell id="liT73C5ILRIBMMw8ay9D-94" value="" style="endArrow=classic;html=1;exitX=0.5;exitY=0;exitDx=0;exitDy=0;entryX=0.351;entryY=1.041;entryDx=0;entryDy=0;entryPerimeter=0;" edge="1" parent="1" source="liT73C5ILRIBMMw8ay9D-85" target="liT73C5ILRIBMMw8ay9D-89">
                    <mxGeometry width="50" height="50" relative="1" as="geometry">
                        <mxPoint x="170" y="905" as="sourcePoint"/>
                        <mxPoint x="220" y="855" as="targetPoint"/>
                    </mxGeometry>
                </mxCell>
                <mxCell id="liT73C5ILRIBMMw8ay9D-95" value="" style="endArrow=classic;html=1;entryX=-0.004;entryY=0.407;entryDx=0;entryDy=0;entryPerimeter=0;exitX=0.75;exitY=0.909;exitDx=0;exitDy=0;exitPerimeter=0;" edge="1" parent="1" source="liT73C5ILRIBMMw8ay9D-89" target="liT73C5ILRIBMMw8ay9D-91">
                    <mxGeometry width="50" height="50" relative="1" as="geometry">
                        <mxPoint x="311" y="780" as="sourcePoint"/>
                        <mxPoint x="360" y="715" as="targetPoint"/>
                    </mxGeometry>
                </mxCell>
                <mxCell id="liT73C5ILRIBMMw8ay9D-96" value="" style="endArrow=classic;html=1;exitX=1;exitY=0.5;exitDx=0;exitDy=0;entryX=0;entryY=0.5;entryDx=0;entryDy=0;" edge="1" parent="1" source="liT73C5ILRIBMMw8ay9D-89" target="liT73C5ILRIBMMw8ay9D-90">
                    <mxGeometry width="50" height="50" relative="1" as="geometry">
                        <mxPoint x="290" y="735" as="sourcePoint"/>
                        <mxPoint x="340" y="685" as="targetPoint"/>
                    </mxGeometry>
                </mxCell>
                <mxCell id="liT73C5ILRIBMMw8ay9D-97" value="" style="endArrow=classic;html=1;exitX=0;exitY=0.5;exitDx=0;exitDy=0;entryX=1;entryY=0.5;entryDx=0;entryDy=0;" edge="1" parent="1" source="liT73C5ILRIBMMw8ay9D-89" target="liT73C5ILRIBMMw8ay9D-93">
                    <mxGeometry width="50" height="50" relative="1" as="geometry">
                        <mxPoint x="270" y="895" as="sourcePoint"/>
                        <mxPoint x="320" y="845" as="targetPoint"/>
                    </mxGeometry>
                </mxCell>
                <mxCell id="liT73C5ILRIBMMw8ay9D-98" value="&amp;lt;https://schema.org/about&amp;gt;" style="text;whiteSpace=wrap;html=1;" vertex="1" parent="1">
                    <mxGeometry x="175" y="655" width="170" height="30" as="geometry"/>
                </mxCell>
                <mxCell id="liT73C5ILRIBMMw8ay9D-99" value="&amp;lt;https://www.yelp.com/kg/tip/compliment_count&amp;gt;" style="text;whiteSpace=wrap;html=1;" vertex="1" parent="1">
                    <mxGeometry x="-120" y="730" width="280" height="30" as="geometry"/>
                </mxCell>
                <mxCell id="liT73C5ILRIBMMw8ay9D-100" value="&amp;lt;https://schema.org/author&amp;gt;" style="text;whiteSpace=wrap;html=1;" vertex="1" parent="1">
                    <mxGeometry x="30" y="825" width="180" height="30" as="geometry"/>
                </mxCell>
                <mxCell id="liT73C5ILRIBMMw8ay9D-101" value="&amp;lt;https://schema.org/dateCreated&amp;gt;" style="text;whiteSpace=wrap;html=1;" vertex="1" parent="1">
                    <mxGeometry x="220" y="735" width="210" height="30" as="geometry"/>
                </mxCell>
                <mxCell id="liT73C5ILRIBMMw8ay9D-102" value="&amp;lt;https://schema.org/text&amp;gt;" style="text;whiteSpace=wrap;html=1;" vertex="1" parent="1">
                    <mxGeometry x="240" y="795" width="160" height="30" as="geometry"/>
                </mxCell>
                <mxCell id="liT73C5ILRIBMMw8ay9D-103" style="edgeStyle=none;html=1;entryX=0.5;entryY=1;entryDx=0;entryDy=0;exitX=0.115;exitY=0.148;exitDx=0;exitDy=0;exitPerimeter=0;" edge="1" parent="1" source="liT73C5ILRIBMMw8ay9D-106" target="liT73C5ILRIBMMw8ay9D-107">
                    <mxGeometry relative="1" as="geometry"/>
                </mxCell>
                <mxCell id="liT73C5ILRIBMMw8ay9D-104" style="edgeStyle=none;html=1;entryX=0.5;entryY=0;entryDx=0;entryDy=0;" edge="1" parent="1" source="liT73C5ILRIBMMw8ay9D-106" target="liT73C5ILRIBMMw8ay9D-113">
                    <mxGeometry relative="1" as="geometry"/>
                </mxCell>
                <mxCell id="liT73C5ILRIBMMw8ay9D-105" value="" style="edgeStyle=none;html=1;exitX=0.085;exitY=0.836;exitDx=0;exitDy=0;exitPerimeter=0;entryX=0.5;entryY=0;entryDx=0;entryDy=0;" edge="1" parent="1" source="liT73C5ILRIBMMw8ay9D-106" target="liT73C5ILRIBMMw8ay9D-116">
                    <mxGeometry relative="1" as="geometry"/>
                </mxCell>
                <mxCell id="liT73C5ILRIBMMw8ay9D-106" value="&amp;lt;https://www.yelp.com/biz/CpCFYyWjzo0CKbum1ZJiMw?hrid=Hgy1SY8rLWZr4It90szWrw&amp;gt;" style="ellipse;whiteSpace=wrap;html=1;" vertex="1" parent="1">
                    <mxGeometry x="-455" y="559.5" width="550" height="30.5" as="geometry"/>
                </mxCell>
                <mxCell id="liT73C5ILRIBMMw8ay9D-107" value="&quot;5.0&quot;^^&amp;lt;http://www.w3.org/2001/XMLSchema#float&amp;gt;" style="ellipse;whiteSpace=wrap;html=1;" vertex="1" parent="1">
                    <mxGeometry x="-710" y="480" width="320" height="30" as="geometry"/>
                </mxCell>
                <mxCell id="liT73C5ILRIBMMw8ay9D-108" value="&quot;0&quot;^^&amp;lt;http://www.w3.org/2001/XMLSchema#int&amp;gt;" style="ellipse;whiteSpace=wrap;html=1;" vertex="1" parent="1">
                    <mxGeometry x="-236" y="510" width="306" height="30" as="geometry"/>
                </mxCell>
                <mxCell id="liT73C5ILRIBMMw8ay9D-109" value="" style="endArrow=classic;html=1;exitX=0.052;exitY=0.767;exitDx=0;exitDy=0;exitPerimeter=0;entryX=1;entryY=0;entryDx=0;entryDy=0;" edge="1" parent="1" source="liT73C5ILRIBMMw8ay9D-9" target="liT73C5ILRIBMMw8ay9D-108">
                    <mxGeometry width="50" height="50" relative="1" as="geometry">
                        <mxPoint x="-30" y="650" as="sourcePoint"/>
                        <mxPoint x="20" y="600" as="targetPoint"/>
                    </mxGeometry>
                </mxCell>
                <mxCell id="liT73C5ILRIBMMw8ay9D-110" value="&amp;lt;https://www.yelp.com/kg/review/votes_count/cool&amp;gt;" style="text;whiteSpace=wrap;html=1;" vertex="1" parent="1">
                    <mxGeometry x="-10" y="480" width="300" height="30" as="geometry"/>
                </mxCell>
                <mxCell id="liT73C5ILRIBMMw8ay9D-111" value="" style="endArrow=classic;html=1;exitX=1;exitY=0;exitDx=0;exitDy=0;entryX=0.106;entryY=0.833;entryDx=0;entryDy=0;entryPerimeter=0;" edge="1" parent="1" source="liT73C5ILRIBMMw8ay9D-106" target="liT73C5ILRIBMMw8ay9D-9">
                    <mxGeometry width="50" height="50" relative="1" as="geometry">
                        <mxPoint y="650" as="sourcePoint"/>
                        <mxPoint x="50" y="600" as="targetPoint"/>
                    </mxGeometry>
                </mxCell>
                <mxCell id="liT73C5ILRIBMMw8ay9D-112" value="&amp;lt;https://schema.org/itemReviewed&amp;gt;" style="text;whiteSpace=wrap;html=1;" vertex="1" parent="1">
                    <mxGeometry x="95" y="497.5" width="220" height="30" as="geometry"/>
                </mxCell>
                <mxCell id="liT73C5ILRIBMMw8ay9D-113" value="&amp;lt;https://www.yelp.com/user_details?userid=fpHUpxSWuM3DdgxvzBlkYg&amp;gt;" style="ellipse;whiteSpace=wrap;html=1;" vertex="1" parent="1">
                    <mxGeometry x="-595" y="668" width="430" height="32.5" as="geometry"/>
                </mxCell>
                <mxCell id="liT73C5ILRIBMMw8ay9D-114" value="&amp;lt;https://schema.org/starRating&amp;gt;" style="text;whiteSpace=wrap;html=1;" vertex="1" parent="1">
                    <mxGeometry x="-540" y="527.5" width="200" height="30" as="geometry"/>
                </mxCell>
                <mxCell id="liT73C5ILRIBMMw8ay9D-115" value="&amp;lt;https://schema.org/author&amp;gt;" style="text;whiteSpace=wrap;html=1;" vertex="1" parent="1">
                    <mxGeometry x="-353" y="600" width="180" height="30" as="geometry"/>
                </mxCell>
                <mxCell id="liT73C5ILRIBMMw8ay9D-116" value="&quot;I cannot tell [. . .] I love this store!&quot;^^&amp;lt;http://www.w3.org/2001/XMLSchema#string&amp;gt;" style="ellipse;whiteSpace=wrap;html=1;" vertex="1" parent="1">
                    <mxGeometry x="-810" y="620" width="480" height="30" as="geometry"/>
                </mxCell>
                <mxCell id="liT73C5ILRIBMMw8ay9D-117" value="&amp;lt;https://schema.org/text&amp;gt;" style="text;whiteSpace=wrap;html=1;" vertex="1" parent="1">
                    <mxGeometry x="-570" y="590" width="160" height="30" as="geometry"/>
                </mxCell>
                <mxCell id="liT73C5ILRIBMMw8ay9D-118" value="&quot;3.73&quot;^^&amp;lt;http://www.w3.org/2001/XMLSchema#float&amp;gt;" style="ellipse;whiteSpace=wrap;html=1;" vertex="1" parent="1">
                    <mxGeometry x="-170" y="1320" width="314" height="40" as="geometry"/>
                </mxCell>
                <mxCell id="liT73C5ILRIBMMw8ay9D-119" value="&quot;Kam&quot;^^&amp;lt;http://www.w3.org/2001/XMLSchema#string&amp;gt;" style="ellipse;whiteSpace=wrap;html=1;" vertex="1" parent="1">
                    <mxGeometry x="170" y="1340" width="314" height="30" as="geometry"/>
                </mxCell>
                <mxCell id="liT73C5ILRIBMMw8ay9D-120" value="&quot;2012-04-29 19:08:40&quot;^^&amp;lt;http://www.w3.org/2001/XMLSchema#dateTime&amp;gt;" style="ellipse;whiteSpace=wrap;html=1;" vertex="1" parent="1">
                    <mxGeometry x="390" y="1300" width="430" height="30" as="geometry"/>
                </mxCell>
                <mxCell id="liT73C5ILRIBMMw8ay9D-121" value="&quot;4&quot;^^&amp;lt;http://www.w3.org/2001/XMLSchema#int&amp;gt;" style="ellipse;whiteSpace=wrap;html=1;" vertex="1" parent="1">
                    <mxGeometry x="739" y="1080" width="274" height="30" as="geometry"/>
                </mxCell>
                <mxCell id="liT73C5ILRIBMMw8ay9D-122" value="&quot;21&quot;^^&amp;lt;http://www.w3.org/2001/XMLSchema#int&amp;gt;" style="ellipse;whiteSpace=wrap;html=1;" vertex="1" parent="1">
                    <mxGeometry x="707" y="1140" width="274" height="30" as="geometry"/>
                </mxCell>
                <mxCell id="liT73C5ILRIBMMw8ay9D-123" value="&quot;82&quot;^^&amp;lt;http://www.w3.org/2001/XMLSchema#int&amp;gt;" style="ellipse;whiteSpace=wrap;html=1;" vertex="1" parent="1">
                    <mxGeometry x="639" y="1190" width="274" height="30" as="geometry"/>
                </mxCell>
                <mxCell id="liT73C5ILRIBMMw8ay9D-124" value="&quot;1&quot;^^&amp;lt;http://www.w3.org/2001/XMLSchema#int&amp;gt;" style="ellipse;whiteSpace=wrap;html=1;" vertex="1" parent="1">
                    <mxGeometry x="548" y="1250" width="274" height="30" as="geometry"/>
                </mxCell>
                <mxCell id="liT73C5ILRIBMMw8ay9D-125" value="&quot;0&quot;^^&amp;lt;http://www.w3.org/2001/XMLSchema#int&amp;gt;" style="ellipse;whiteSpace=wrap;html=1;" vertex="1" parent="1">
                    <mxGeometry x="-284" y="1280" width="274" height="30" as="geometry"/>
                </mxCell>
                <mxCell id="liT73C5ILRIBMMw8ay9D-126" value="&quot;62&quot;^^&amp;lt;http://www.w3.org/2001/XMLSchema#int&amp;gt;" style="ellipse;whiteSpace=wrap;html=1;" vertex="1" parent="1">
                    <mxGeometry x="-439" y="1230" width="274" height="30" as="geometry"/>
                </mxCell>
                <mxCell id="liT73C5ILRIBMMw8ay9D-127" value="&quot;2&quot;^^&amp;lt;http://www.w3.org/2001/XMLSchema#int&amp;gt;" style="ellipse;whiteSpace=wrap;html=1;" vertex="1" parent="1">
                    <mxGeometry x="-517" y="1170" width="274" height="30" as="geometry"/>
                </mxCell>
                <mxCell id="liT73C5ILRIBMMw8ay9D-128" value="&quot;17&quot;^^&amp;lt;http://www.w3.org/2001/XMLSchema#int&amp;gt;" style="ellipse;whiteSpace=wrap;html=1;" vertex="1" parent="1">
                    <mxGeometry x="-604" y="1090" width="274" height="30" as="geometry"/>
                </mxCell>
                <mxCell id="liT73C5ILRIBMMw8ay9D-129" value="3&quot;^^&amp;lt;http://www.w3.org/2001/XMLSchema#int&amp;gt;" style="ellipse;whiteSpace=wrap;html=1;" vertex="1" parent="1">
                    <mxGeometry x="-604" y="910" width="274" height="30" as="geometry"/>
                </mxCell>
                <mxCell id="liT73C5ILRIBMMw8ay9D-130" value="&quot;&quot;^^&amp;lt;http://www.w3.org/2001/XMLSchema#year&amp;gt;" style="ellipse;whiteSpace=wrap;html=1;" vertex="1" parent="1">
                    <mxGeometry x="-595" y="1010" width="274" height="30" as="geometry"/>
                </mxCell>
                <mxCell id="liT73C5ILRIBMMw8ay9D-131" value="&quot;0&quot;^^&amp;lt;http://www.w3.org/2001/XMLSchema#int&amp;gt;" style="ellipse;whiteSpace=wrap;html=1;" vertex="1" parent="1">
                    <mxGeometry x="-270" y="292.5" width="261" height="35" as="geometry"/>
                </mxCell>
                <mxCell id="liT73C5ILRIBMMw8ay9D-132" value="" style="endArrow=classic;html=1;exitX=0.182;exitY=0.133;exitDx=0;exitDy=0;exitPerimeter=0;entryX=1;entryY=0.675;entryDx=0;entryDy=0;entryPerimeter=0;" edge="1" parent="1" source="liT73C5ILRIBMMw8ay9D-9" target="liT73C5ILRIBMMw8ay9D-131">
                    <mxGeometry width="50" height="50" relative="1" as="geometry">
                        <mxPoint x="190" y="280" as="sourcePoint"/>
                        <mxPoint x="240" y="230" as="targetPoint"/>
                    </mxGeometry>
                </mxCell>
                <mxCell id="liT73C5ILRIBMMw8ay9D-133" value="&amp;lt;https://www.yelp.com/kg/review/votes_count/funny&amp;gt;" style="text;whiteSpace=wrap;html=1;" vertex="1" parent="1">
                    <mxGeometry x="-54" y="340" width="310" height="30" as="geometry"/>
                </mxCell>
                <mxCell id="liT73C5ILRIBMMw8ay9D-134" value="&quot;2016-02-05 22:55:43&quot;^^&amp;lt;http://www.w3.org/2001/XMLSchema#dateTime&amp;gt;" style="ellipse;whiteSpace=wrap;html=1;" vertex="1" parent="1">
                    <mxGeometry x="-655" y="375" width="430" height="35" as="geometry"/>
                </mxCell>
                <mxCell id="liT73C5ILRIBMMw8ay9D-135" value="" style="endArrow=classic;html=1;exitX=0.204;exitY=0.148;exitDx=0;exitDy=0;exitPerimeter=0;" edge="1" parent="1" source="liT73C5ILRIBMMw8ay9D-106" target="liT73C5ILRIBMMw8ay9D-134">
                    <mxGeometry width="50" height="50" relative="1" as="geometry">
                        <mxPoint x="-210" y="380" as="sourcePoint"/>
                        <mxPoint x="-160" y="330" as="targetPoint"/>
                    </mxGeometry>
                </mxCell>
                <mxCell id="liT73C5ILRIBMMw8ay9D-136" value="&amp;lt;https://schema.org/dateCreated&amp;gt;" style="text;whiteSpace=wrap;html=1;" vertex="1" parent="1">
                    <mxGeometry x="-506" y="437.5" width="210" height="30" as="geometry"/>
                </mxCell>
                <mxCell id="liT73C5ILRIBMMw8ay9D-137" value="&quot;0&quot;^^&amp;lt;http://www.w3.org/2001/XMLSchema#int&amp;gt;" style="ellipse;whiteSpace=wrap;html=1;" vertex="1" parent="1">
                    <mxGeometry x="1070" y="607" width="300" height="30.5" as="geometry"/>
                </mxCell>
                <mxCell id="liT73C5ILRIBMMw8ay9D-138" value="" style="endArrow=classic;html=1;entryX=0;entryY=0.5;entryDx=0;entryDy=0;exitX=0.827;exitY=1.067;exitDx=0;exitDy=0;exitPerimeter=0;" edge="1" parent="1" source="liT73C5ILRIBMMw8ay9D-9" target="liT73C5ILRIBMMw8ay9D-137">
                    <mxGeometry width="50" height="50" relative="1" as="geometry">
                        <mxPoint x="620" y="380" as="sourcePoint"/>
                        <mxPoint x="670" y="330" as="targetPoint"/>
                    </mxGeometry>
                </mxCell>
                <mxCell id="liT73C5ILRIBMMw8ay9D-139" value="&amp;lt;https://www.yelp.com/kg/review/votes_count/useful&amp;gt;" style="text;whiteSpace=wrap;html=1;" vertex="1" parent="1">
                    <mxGeometry x="790" y="570" width="310" height="30" as="geometry"/>
                </mxCell>
                <mxCell id="liT73C5ILRIBMMw8ay9D-140" value="&amp;lt;https://www.yelp.com/biz/CpCFYyWjzo0CKbum1ZJiMw&amp;gt;" style="ellipse;whiteSpace=wrap;html=1;" vertex="1" parent="1">
                    <mxGeometry x="-790" y="760" width="360" height="30" as="geometry"/>
                </mxCell>
                <mxCell id="liT73C5ILRIBMMw8ay9D-141" value="" style="endArrow=classic;html=1;exitX=0;exitY=1;exitDx=0;exitDy=0;entryX=0.5;entryY=0;entryDx=0;entryDy=0;" edge="1" parent="1" source="liT73C5ILRIBMMw8ay9D-113" target="liT73C5ILRIBMMw8ay9D-140">
                    <mxGeometry width="50" height="50" relative="1" as="geometry">
                        <mxPoint x="-740" y="580" as="sourcePoint"/>
                        <mxPoint x="-690" y="530" as="targetPoint"/>
                    </mxGeometry>
                </mxCell>
                <mxCell id="liT73C5ILRIBMMw8ay9D-142" value="&amp;lt;https://schema.org/itemReviewed&amp;gt;" style="text;whiteSpace=wrap;html=1;" vertex="1" parent="1">
                    <mxGeometry x="-650" y="720" width="220" height="30" as="geometry"/>
                </mxCell>
                <mxCell id="liT73C5ILRIBMMw8ay9D-143" value="" style="endArrow=classic;html=1;exitX=0.308;exitY=1.027;exitDx=0;exitDy=0;exitPerimeter=0;entryX=1;entryY=0;entryDx=0;entryDy=0;" edge="1" parent="1" source="liT73C5ILRIBMMw8ay9D-85" target="liT73C5ILRIBMMw8ay9D-130">
                    <mxGeometry width="50" height="50" relative="1" as="geometry">
                        <mxPoint x="-20" y="1070" as="sourcePoint"/>
                        <mxPoint x="30" y="1020" as="targetPoint"/>
                    </mxGeometry>
                </mxCell>
                <mxCell id="liT73C5ILRIBMMw8ay9D-144" value="" style="endArrow=classic;html=1;exitX=0.374;exitY=1.027;exitDx=0;exitDy=0;exitPerimeter=0;entryX=1;entryY=0;entryDx=0;entryDy=0;" edge="1" parent="1" source="liT73C5ILRIBMMw8ay9D-85" target="liT73C5ILRIBMMw8ay9D-128">
                    <mxGeometry width="50" height="50" relative="1" as="geometry">
                        <mxPoint x="-60" y="1120" as="sourcePoint"/>
                        <mxPoint x="-10" y="1070" as="targetPoint"/>
                    </mxGeometry>
                </mxCell>
                <mxCell id="liT73C5ILRIBMMw8ay9D-145" value="" style="endArrow=classic;html=1;exitX=0.405;exitY=1.027;exitDx=0;exitDy=0;exitPerimeter=0;entryX=0.5;entryY=0;entryDx=0;entryDy=0;" edge="1" parent="1" source="liT73C5ILRIBMMw8ay9D-85" target="liT73C5ILRIBMMw8ay9D-127">
                    <mxGeometry width="50" height="50" relative="1" as="geometry">
                        <mxPoint x="-130" y="1160" as="sourcePoint"/>
                        <mxPoint x="-80" y="1110" as="targetPoint"/>
                    </mxGeometry>
                </mxCell>
                <mxCell id="liT73C5ILRIBMMw8ay9D-146" value="" style="endArrow=classic;html=1;exitX=0.474;exitY=1.067;exitDx=0;exitDy=0;exitPerimeter=0;entryX=0.978;entryY=0.263;entryDx=0;entryDy=0;entryPerimeter=0;" edge="1" parent="1" source="liT73C5ILRIBMMw8ay9D-85" target="liT73C5ILRIBMMw8ay9D-127">
                    <mxGeometry width="50" height="50" relative="1" as="geometry">
                        <mxPoint x="133.42999999999972" y="940" as="sourcePoint"/>
                        <mxPoint x="-235.99599999999975" y="1200" as="targetPoint"/>
                    </mxGeometry>
                </mxCell>
                <mxCell id="liT73C5ILRIBMMw8ay9D-147" value="" style="endArrow=classic;html=1;exitX=0.5;exitY=1;exitDx=0;exitDy=0;entryX=1;entryY=0;entryDx=0;entryDy=0;" edge="1" parent="1" source="liT73C5ILRIBMMw8ay9D-85" target="liT73C5ILRIBMMw8ay9D-126">
                    <mxGeometry width="50" height="50" relative="1" as="geometry">
                        <mxPoint x="-90" y="1220" as="sourcePoint"/>
                        <mxPoint x="-40" y="1170" as="targetPoint"/>
                    </mxGeometry>
                </mxCell>
                <mxCell id="liT73C5ILRIBMMw8ay9D-148" value="" style="endArrow=classic;html=1;exitX=0.529;exitY=0.988;exitDx=0;exitDy=0;exitPerimeter=0;entryX=0.403;entryY=0.047;entryDx=0;entryDy=0;entryPerimeter=0;" edge="1" parent="1" source="liT73C5ILRIBMMw8ay9D-85" target="liT73C5ILRIBMMw8ay9D-125">
                    <mxGeometry width="50" height="50" relative="1" as="geometry">
                        <mxPoint x="-60" y="1240" as="sourcePoint"/>
                        <mxPoint x="-10" y="1190" as="targetPoint"/>
                    </mxGeometry>
                </mxCell>
                <mxCell id="liT73C5ILRIBMMw8ay9D-149" value="" style="endArrow=classic;html=1;exitX=0.554;exitY=1.027;exitDx=0;exitDy=0;exitPerimeter=0;entryX=0.566;entryY=-0.031;entryDx=0;entryDy=0;entryPerimeter=0;" edge="1" parent="1" source="liT73C5ILRIBMMw8ay9D-85" target="liT73C5ILRIBMMw8ay9D-125">
                    <mxGeometry width="50" height="50" relative="1" as="geometry">
                        <mxPoint x="125.88999999999942" y="919.6399999999999" as="sourcePoint"/>
                        <mxPoint x="-163.57799999999952" y="1291.4099999999999" as="targetPoint"/>
                    </mxGeometry>
                </mxCell>
                <mxCell id="liT73C5ILRIBMMw8ay9D-150" value="" style="endArrow=classic;html=1;exitX=0.603;exitY=1.027;exitDx=0;exitDy=0;exitPerimeter=0;entryX=0.703;entryY=0.047;entryDx=0;entryDy=0;entryPerimeter=0;" edge="1" parent="1" source="liT73C5ILRIBMMw8ay9D-85" target="liT73C5ILRIBMMw8ay9D-125">
                    <mxGeometry width="50" height="50" relative="1" as="geometry">
                        <mxPoint x="135.88999999999942" y="929.6399999999999" as="sourcePoint"/>
                        <mxPoint x="-153.57799999999952" y="1301.4099999999999" as="targetPoint"/>
                    </mxGeometry>
                </mxCell>
                <mxCell id="liT73C5ILRIBMMw8ay9D-151" value="" style="endArrow=classic;html=1;exitX=0.678;exitY=0.988;exitDx=0;exitDy=0;exitPerimeter=0;entryX=0.935;entryY=0.282;entryDx=0;entryDy=0;entryPerimeter=0;" edge="1" parent="1" source="liT73C5ILRIBMMw8ay9D-85" target="liT73C5ILRIBMMw8ay9D-125">
                    <mxGeometry width="50" height="50" relative="1" as="geometry">
                        <mxPoint x="145.88999999999942" y="939.6399999999999" as="sourcePoint"/>
                        <mxPoint x="-143.57799999999952" y="1311.4099999999999" as="targetPoint"/>
                    </mxGeometry>
                </mxCell>
                <mxCell id="liT73C5ILRIBMMw8ay9D-152" value="" style="endArrow=classic;html=1;exitX=0.738;exitY=0.988;exitDx=0;exitDy=0;exitPerimeter=0;entryX=1;entryY=0;entryDx=0;entryDy=0;" edge="1" parent="1" source="liT73C5ILRIBMMw8ay9D-85" target="liT73C5ILRIBMMw8ay9D-118">
                    <mxGeometry width="50" height="50" relative="1" as="geometry">
                        <mxPoint x="220" y="1280" as="sourcePoint"/>
                        <mxPoint x="270" y="1230" as="targetPoint"/>
                    </mxGeometry>
                </mxCell>
                <mxCell id="liT73C5ILRIBMMw8ay9D-153" value="" style="endArrow=classic;html=1;exitX=0.795;exitY=0.871;exitDx=0;exitDy=0;exitPerimeter=0;entryX=0.5;entryY=0;entryDx=0;entryDy=0;" edge="1" parent="1" source="liT73C5ILRIBMMw8ay9D-85" target="liT73C5ILRIBMMw8ay9D-119">
                    <mxGeometry width="50" height="50" relative="1" as="geometry">
                        <mxPoint x="250" y="1120" as="sourcePoint"/>
                        <mxPoint x="300" y="1070" as="targetPoint"/>
                    </mxGeometry>
                </mxCell>
                <mxCell id="liT73C5ILRIBMMw8ay9D-154" value="" style="endArrow=classic;html=1;exitX=1;exitY=1;exitDx=0;exitDy=0;entryX=0.233;entryY=0;entryDx=0;entryDy=0;entryPerimeter=0;" edge="1" parent="1" source="liT73C5ILRIBMMw8ay9D-85" target="liT73C5ILRIBMMw8ay9D-120">
                    <mxGeometry width="50" height="50" relative="1" as="geometry">
                        <mxPoint x="410" y="1150" as="sourcePoint"/>
                        <mxPoint x="460" y="1100" as="targetPoint"/>
                    </mxGeometry>
                </mxCell>
                <mxCell id="liT73C5ILRIBMMw8ay9D-155" value="" style="endArrow=classic;html=1;exitX=0.902;exitY=0.792;exitDx=0;exitDy=0;exitPerimeter=0;entryX=0;entryY=0.5;entryDx=0;entryDy=0;" edge="1" parent="1" source="liT73C5ILRIBMMw8ay9D-85" target="liT73C5ILRIBMMw8ay9D-124">
                    <mxGeometry width="50" height="50" relative="1" as="geometry">
                        <mxPoint x="460" y="1100" as="sourcePoint"/>
                        <mxPoint x="510" y="1050" as="targetPoint"/>
                    </mxGeometry>
                </mxCell>
                <mxCell id="liT73C5ILRIBMMw8ay9D-156" value="" style="endArrow=classic;html=1;exitX=0.962;exitY=0.714;exitDx=0;exitDy=0;exitPerimeter=0;entryX=0;entryY=0.5;entryDx=0;entryDy=0;" edge="1" parent="1" source="liT73C5ILRIBMMw8ay9D-85">
                    <mxGeometry width="50" height="50" relative="1" as="geometry">
                        <mxPoint x="325.14999999999975" y="894.9999999999998" as="sourcePoint"/>
                        <mxPoint x="592.8499999999945" y="1252.6999999999998" as="targetPoint"/>
                    </mxGeometry>
                </mxCell>
                <mxCell id="liT73C5ILRIBMMw8ay9D-157" value="" style="endArrow=classic;html=1;exitX=1;exitY=0.5;exitDx=0;exitDy=0;entryX=0;entryY=0;entryDx=0;entryDy=0;" edge="1" parent="1" source="liT73C5ILRIBMMw8ay9D-85" target="liT73C5ILRIBMMw8ay9D-123">
                    <mxGeometry width="50" height="50" relative="1" as="geometry">
                        <mxPoint x="450" y="1010" as="sourcePoint"/>
                        <mxPoint x="500" y="960" as="targetPoint"/>
                    </mxGeometry>
                </mxCell>
                <mxCell id="liT73C5ILRIBMMw8ay9D-158" value="https://www.yelp.com/kg/user/compliment_count/note&gt;" style="text;whiteSpace=wrap;html=1;" vertex="1" parent="1">
                    <mxGeometry x="-400" y="880" width="320" height="30" as="geometry"/>
                </mxCell>
                <mxCell id="liT73C5ILRIBMMw8ay9D-159" value="" style="endArrow=classic;html=1;exitX=1;exitY=0.5;exitDx=0;exitDy=0;entryX=0;entryY=0;entryDx=0;entryDy=0;" edge="1" parent="1" source="liT73C5ILRIBMMw8ay9D-85" target="liT73C5ILRIBMMw8ay9D-122">
                    <mxGeometry width="50" height="50" relative="1" as="geometry">
                        <mxPoint x="550" y="1030" as="sourcePoint"/>
                        <mxPoint x="600" y="980" as="targetPoint"/>
                    </mxGeometry>
                </mxCell>
                <mxCell id="liT73C5ILRIBMMw8ay9D-160" value="&amp;lt;https://www.yelp.com/kg/user/compliment_count/funny&amp;gt;" style="text;whiteSpace=wrap;html=1;" vertex="1" parent="1">
                    <mxGeometry x="-380" y="895" width="330" height="30" as="geometry"/>
                </mxCell>
                <mxCell id="liT73C5ILRIBMMw8ay9D-161" value="&amp;lt;https://www.yelp.com/kg/user/compliment_count/cool&amp;gt;" style="text;whiteSpace=wrap;html=1;" vertex="1" parent="1">
                    <mxGeometry x="-340" y="910" width="320" height="30" as="geometry"/>
                </mxCell>
                <mxCell id="liT73C5ILRIBMMw8ay9D-162" value="" style="endArrow=classic;html=1;exitX=1;exitY=0.5;exitDx=0;exitDy=0;entryX=0;entryY=0;entryDx=0;entryDy=0;" edge="1" parent="1" source="liT73C5ILRIBMMw8ay9D-85" target="liT73C5ILRIBMMw8ay9D-121">
                    <mxGeometry width="50" height="50" relative="1" as="geometry">
                        <mxPoint x="620" y="1040" as="sourcePoint"/>
                        <mxPoint x="670" y="990" as="targetPoint"/>
                    </mxGeometry>
                </mxCell>
                <mxCell id="liT73C5ILRIBMMw8ay9D-163" value="&amp;lt;https://www.yelp.com/kg/user/elite&amp;gt;" style="text;whiteSpace=wrap;html=1;" vertex="1" parent="1">
                    <mxGeometry x="-310" y="950" width="220" height="30" as="geometry"/>
                </mxCell>
                <mxCell id="liT73C5ILRIBMMw8ay9D-164" value="&amp;lt;https://www.yelp.com/kg/user/votes_count/funny&amp;gt;" style="text;whiteSpace=wrap;html=1;" vertex="1" parent="1">
                    <mxGeometry x="-480" y="1050" width="300" height="30" as="geometry"/>
                </mxCell>
                <mxCell id="liT73C5ILRIBMMw8ay9D-165" value="&amp;lt;https://www.yelp.com/kg/user/compliment_count/more&amp;gt;" style="text;whiteSpace=wrap;html=1;" vertex="1" parent="1">
                    <mxGeometry x="-467" y="1130" width="330" height="30" as="geometry"/>
                </mxCell>
                <mxCell id="liT73C5ILRIBMMw8ay9D-166" value="&amp;lt;https://www.yelp.com/kg/user/votes_count/fans&amp;gt;" style="text;whiteSpace=wrap;html=1;" vertex="1" parent="1">
                    <mxGeometry x="-292" y="1070" width="290" height="30" as="geometry"/>
                </mxCell>
                <mxCell id="liT73C5ILRIBMMw8ay9D-167" value="&amp;lt;https://schema.org/reviewCount&amp;gt;" style="text;whiteSpace=wrap;html=1;" vertex="1" parent="1">
                    <mxGeometry x="-215" y="1120" width="210" height="30" as="geometry"/>
                </mxCell>
                <mxCell id="liT73C5ILRIBMMw8ay9D-168" value="&amp;lt;https://www.yelp.com/kg/user/compliment_count/list&amp;gt;" style="text;whiteSpace=wrap;html=1;" vertex="1" parent="1">
                    <mxGeometry x="-265" y="1200" width="310" height="30" as="geometry"/>
                </mxCell>
                <mxCell id="liT73C5ILRIBMMw8ay9D-169" value="&amp;lt;https://www.yelp.com/kg/user/compliment_count/profile&amp;gt;" style="text;whiteSpace=wrap;html=1;" vertex="1" parent="1">
                    <mxGeometry x="-240" y="1170" width="330" height="30" as="geometry"/>
                </mxCell>
                <mxCell id="liT73C5ILRIBMMw8ay9D-170" value="&amp;lt;https://www.yelp.com/kg/user/compliment_count/writer&amp;gt;" style="text;whiteSpace=wrap;html=1;" vertex="1" parent="1">
                    <mxGeometry x="-185" y="1140" width="330" height="30" as="geometry"/>
                </mxCell>
                <mxCell id="liT73C5ILRIBMMw8ay9D-171" value="&amp;lt;https://www.yelp.com/kg/user/compliment_count/photos&amp;gt;" style="text;whiteSpace=wrap;html=1;" vertex="1" parent="1">
                    <mxGeometry x="-110" y="1110" width="340" height="30" as="geometry"/>
                </mxCell>
                <mxCell id="liT73C5ILRIBMMw8ay9D-172" value="&amp;lt;https://www.yelp.com/kg/user/average_stars&amp;gt;" style="text;whiteSpace=wrap;html=1;" vertex="1" parent="1">
                    <mxGeometry x="-9" y="1210" width="270" height="30" as="geometry"/>
                </mxCell>
                <mxCell id="liT73C5ILRIBMMw8ay9D-173" value="&amp;lt;https://schema.org/givenName&amp;gt;" style="text;whiteSpace=wrap;html=1;" vertex="1" parent="1">
                    <mxGeometry x="175" y="1160" width="200" height="30" as="geometry"/>
                </mxCell>
                <mxCell id="liT73C5ILRIBMMw8ay9D-174" value="&amp;lt;https://www.yelp.com/kg/user/compliment_count/cute&amp;gt;" style="text;whiteSpace=wrap;html=1;" vertex="1" parent="1">
                    <mxGeometry x="290" y="1140" width="320" height="30" as="geometry"/>
                </mxCell>
                <mxCell id="liT73C5ILRIBMMw8ay9D-175" value="&amp;lt;https://www.yelp.com/kg/user/compliment_count/hot&amp;gt;" style="text;whiteSpace=wrap;html=1;" vertex="1" parent="1">
                    <mxGeometry x="385" y="1170" width="320" height="30" as="geometry"/>
                </mxCell>
                <mxCell id="liT73C5ILRIBMMw8ay9D-176" value="&amp;lt;https://www.yelp.com/kg/user/votes_count/useful&amp;gt;" style="text;whiteSpace=wrap;html=1;" vertex="1" parent="1">
                    <mxGeometry x="420" y="1080" width="300" height="30" as="geometry"/>
                </mxCell>
                <mxCell id="liT73C5ILRIBMMw8ay9D-177" value="&amp;lt;https://www.yelp.com/kg/user/votes_count/cool&amp;gt;" style="text;whiteSpace=wrap;html=1;" vertex="1" parent="1">
                    <mxGeometry x="430" y="1030" width="290" height="30" as="geometry"/>
                </mxCell>
                <mxCell id="liT73C5ILRIBMMw8ay9D-178" value="&amp;lt;https://www.yelp.com/kg/user/compliment_count/plain&amp;gt;" style="text;whiteSpace=wrap;html=1;" vertex="1" parent="1">
                    <mxGeometry x="460" y="990" width="320" height="30" as="geometry"/>
                </mxCell>
                <mxCell id="liT73C5ILRIBMMw8ay9D-179" value="&amp;lt;https://schema.org/startTime&amp;gt;" style="text;whiteSpace=wrap;html=1;" vertex="1" parent="1">
                    <mxGeometry x="284" y="1090" width="190" height="30" as="geometry"/>
                </mxCell>
                <mxCell id="liT73C5ILRIBMMw8ay9D-180" value="" style="endArrow=classic;html=1;exitX=0.963;exitY=0.244;exitDx=0;exitDy=0;exitPerimeter=0;entryX=0.121;entryY=0.085;entryDx=0;entryDy=0;entryPerimeter=0;" edge="1" parent="1" source="liT73C5ILRIBMMw8ay9D-85" target="liT73C5ILRIBMMw8ay9D-182">
                    <mxGeometry width="50" height="50" relative="1" as="geometry">
                        <mxPoint x="1070" y="970" as="sourcePoint"/>
                        <mxPoint x="1000.904" y="921.2500000000005" as="targetPoint"/>
                    </mxGeometry>
                </mxCell>
                <mxCell id="liT73C5ILRIBMMw8ay9D-181" value="" style="endArrow=classic;html=1;entryX=1;entryY=0.5;entryDx=0;entryDy=0;exitX=0;exitY=0.5;exitDx=0;exitDy=0;" edge="1" parent="1" source="liT73C5ILRIBMMw8ay9D-182" target="liT73C5ILRIBMMw8ay9D-85">
                    <mxGeometry width="50" height="50" relative="1" as="geometry">
                        <mxPoint x="892.167467674838" y="932.7086849573639" as="sourcePoint"/>
                        <mxPoint x="1120" y="920" as="targetPoint"/>
                    </mxGeometry>
                </mxCell>
                <mxCell id="liT73C5ILRIBMMw8ay9D-182" value="https://www.yelp.com/user_details?userid=Jt3GylPuH64uA3zTdbMdCg" style="ellipse;whiteSpace=wrap;html=1;labelBackgroundColor=none;fontColor=#000000;" vertex="1" parent="1">
                    <mxGeometry x="870" y="925" width="390" height="30" as="geometry"/>
                </mxCell>
                <UserObject label="https://schema.org/knows" link="https://schema.org/knows" id="liT73C5ILRIBMMw8ay9D-183">
                    <mxCell style="text;whiteSpace=wrap;html=1;fontColor=#000000;" vertex="1" parent="1">
                        <mxGeometry x="579" y="910" width="160" height="30" as="geometry"/>
                    </mxCell>
                </UserObject>
                <UserObject label="https://schema.org/knows" link="https://schema.org/knows" id="liT73C5ILRIBMMw8ay9D-184">
                    <mxCell style="text;whiteSpace=wrap;html=1;fontColor=#000000;" vertex="1" parent="1">
                        <mxGeometry x="500" y="890" width="160" height="30" as="geometry"/>
                    </mxCell>
                </UserObject>
            </root>
        </mxGraphModel>
    </diagram>
    <diagram id="MKmVWEUOQIGAWoLuu8Ys" name="Page-1">
        <mxGraphModel dx="2638" dy="1053" grid="1" gridSize="10" guides="1" tooltips="1" connect="1" arrows="1" fold="1" page="1" pageScale="1" pageWidth="827" pageHeight="1169" math="0" shadow="0">
            <root>
                <mxCell id="0"/>
                <mxCell id="1" parent="0"/>
                <mxCell id="FuRV-bk0ZiEyzxOxWIwT-119" value="Footnote 2" style="rounded=1;whiteSpace=wrap;html=1;labelBackgroundColor=none;fontColor=#000000;" vertex="1" parent="1">
                    <mxGeometry x="1020" y="952.5" width="90" height="25" as="geometry"/>
                </mxCell>
                <mxCell id="P2MN1hERF61_8z4mD3bg-76" value="" style="endArrow=classic;html=1;exitX=0.5;exitY=0;exitDx=0;exitDy=0;entryX=0.266;entryY=0.988;entryDx=0;entryDy=0;entryPerimeter=0;" parent="1" source="P2MN1hERF61_8z4mD3bg-67" target="2" edge="1">
                    <mxGeometry width="50" height="50" relative="1" as="geometry">
                        <mxPoint x="140" y="770" as="sourcePoint"/>
                        <mxPoint x="190" y="720" as="targetPoint"/>
                    </mxGeometry>
                </mxCell>
                <mxCell id="5" value="" style="edgeStyle=none;html=1;exitX=1;exitY=0;exitDx=0;exitDy=0;" parent="1" source="2" target="3" edge="1">
                    <mxGeometry relative="1" as="geometry"/>
                </mxCell>
                <mxCell id="P2MN1hERF61_8z4mD3bg-31" style="edgeStyle=none;html=1;exitX=0;exitY=0;exitDx=0;exitDy=0;entryX=0.909;entryY=0.8;entryDx=0;entryDy=0;entryPerimeter=0;" parent="1" source="2" target="P2MN1hERF61_8z4mD3bg-29" edge="1">
                    <mxGeometry relative="1" as="geometry"/>
                </mxCell>
                <mxCell id="30" style="edgeStyle=none;html=1;entryX=0.5;entryY=1;entryDx=0;entryDy=0;" parent="1" source="2" target="28" edge="1">
                    <mxGeometry relative="1" as="geometry">
                        <mxPoint x="470" y="340" as="targetPoint"/>
                    </mxGeometry>
                </mxCell>
                <mxCell id="51" style="edgeStyle=none;html=1;entryX=1;entryY=1;entryDx=0;entryDy=0;exitX=0.264;exitY=0.033;exitDx=0;exitDy=0;exitPerimeter=0;" parent="1" source="2" target="50" edge="1">
                    <mxGeometry relative="1" as="geometry"/>
                </mxCell>
                <mxCell id="60" style="edgeStyle=none;html=1;entryX=0;entryY=0.5;entryDx=0;entryDy=0;exitX=0.948;exitY=0.233;exitDx=0;exitDy=0;exitPerimeter=0;" parent="1" source="2" target="59" edge="1">
                    <mxGeometry relative="1" as="geometry"/>
                </mxCell>
                <mxCell id="2" value="&amp;lt;https://www.yelp.com/biz/CpCFYyWjzo0CKbum1ZJiMw&amp;gt;" style="ellipse;whiteSpace=wrap;html=1;" parent="1" vertex="1">
                    <mxGeometry x="309" y="440" width="330" height="30" as="geometry"/>
                </mxCell>
                <mxCell id="7" value="" style="edgeStyle=none;html=1;exitX=1;exitY=0;exitDx=0;exitDy=0;entryX=0;entryY=0.5;entryDx=0;entryDy=0;" parent="1" source="3" target="6" edge="1">
                    <mxGeometry relative="1" as="geometry">
                        <mxPoint x="1609" y="285" as="sourcePoint"/>
                    </mxGeometry>
                </mxCell>
                <mxCell id="13" value="" style="edgeStyle=none;html=1;" parent="1" source="3" target="12" edge="1">
                    <mxGeometry relative="1" as="geometry"/>
                </mxCell>
                <mxCell id="3" value="&amp;nbsp;_:business_att_BusinessParking_Street95413" style="ellipse;whiteSpace=wrap;html=1;" parent="1" vertex="1">
                    <mxGeometry x="739" y="335" width="270" height="30" as="geometry"/>
                </mxCell>
                <mxCell id="Cdz1tfNSAMJjp_Mq3CtY-5" value="&quot;39.970441&quot;^^&amp;lt;http://www.w3.org/2001/XMLSchema#float&amp;gt;" style="ellipse;whiteSpace=wrap;html=1;" parent="1" vertex="1">
                    <mxGeometry x="450" y="659.5" width="340" height="25" as="geometry"/>
                </mxCell>
                <mxCell id="6" value="&amp;lt;http://dbpedia.org/resource/Street&amp;gt;" style="ellipse;whiteSpace=wrap;html=1;" parent="1" vertex="1">
                    <mxGeometry x="1190" y="270" width="220" height="30" as="geometry"/>
                </mxCell>
                <mxCell id="4" value="&amp;lt;https://schema.org/ParkingFacility&amp;gt;" style="text;whiteSpace=wrap;html=1;" parent="1" vertex="1">
                    <mxGeometry x="610" y="390" width="220" height="30" as="geometry"/>
                </mxCell>
                <mxCell id="8" value="&amp;lt;https://schema.org/additionalType&amp;gt;" style="text;whiteSpace=wrap;html=1;rotation=0;" parent="1" vertex="1">
                    <mxGeometry x="970" y="290" width="220" height="30" as="geometry"/>
                </mxCell>
                <mxCell id="P2MN1hERF61_8z4mD3bg-11" value="&amp;lt;https://schema.org/latitude&amp;gt;" style="text;whiteSpace=wrap;html=1;" parent="1" vertex="1">
                    <mxGeometry x="470" y="560" width="180" height="30" as="geometry"/>
                </mxCell>
                <mxCell id="P2MN1hERF61_8z4mD3bg-12" value="&quot;-74.908819&quot;^^&amp;lt;http://www.w3.org/2001/XMLSchema#float&amp;gt;" style="ellipse;whiteSpace=wrap;html=1;" parent="1" vertex="1">
                    <mxGeometry x="620" y="600" width="350" height="45" as="geometry"/>
                </mxCell>
                <mxCell id="9" value="&amp;lt;https://schema.org/value&amp;gt;" style="text;whiteSpace=wrap;html=1;" parent="1" vertex="1">
                    <mxGeometry x="1020" y="325" width="170" height="30" as="geometry"/>
                </mxCell>
                <mxCell id="P2MN1hERF61_8z4mD3bg-13" value="" style="endArrow=classic;html=1;exitX=0.758;exitY=0.967;exitDx=0;exitDy=0;exitPerimeter=0;entryX=0.22;entryY=0.111;entryDx=0;entryDy=0;entryPerimeter=0;" parent="1" source="2" target="P2MN1hERF61_8z4mD3bg-12" edge="1">
                    <mxGeometry width="50" height="50" relative="1" as="geometry">
                        <mxPoint x="540" y="520" as="sourcePoint"/>
                        <mxPoint x="590" y="470" as="targetPoint"/>
                    </mxGeometry>
                </mxCell>
                <mxCell id="P2MN1hERF61_8z4mD3bg-14" value="&amp;lt;https://schema.org/longitude&amp;gt;" style="text;whiteSpace=wrap;html=1;" parent="1" vertex="1">
                    <mxGeometry x="530" y="510" width="190" height="30" as="geometry"/>
                </mxCell>
                <mxCell id="P2MN1hERF61_8z4mD3bg-15" value="&quot;2&quot;" style="ellipse;whiteSpace=wrap;html=1;" parent="1" vertex="1">
                    <mxGeometry x="850" y="445" width="40" height="20" as="geometry"/>
                </mxCell>
                <mxCell id="P2MN1hERF61_8z4mD3bg-16" value="" style="endArrow=classic;html=1;exitX=1;exitY=0.5;exitDx=0;exitDy=0;entryX=0;entryY=0.5;entryDx=0;entryDy=0;" parent="1" source="2" target="P2MN1hERF61_8z4mD3bg-15" edge="1">
                    <mxGeometry width="50" height="50" relative="1" as="geometry">
                        <mxPoint x="710" y="460" as="sourcePoint"/>
                        <mxPoint x="760" y="410" as="targetPoint"/>
                    </mxGeometry>
                </mxCell>
                <mxCell id="P2MN1hERF61_8z4mD3bg-17" value="&amp;lt;https://schema.org/priceRange&amp;gt;" style="text;whiteSpace=wrap;html=1;" parent="1" vertex="1">
                    <mxGeometry x="650" y="435" width="200" height="30" as="geometry"/>
                </mxCell>
                <mxCell id="P2MN1hERF61_8z4mD3bg-18" value="" style="endArrow=classic;html=1;exitX=0;exitY=1;exitDx=0;exitDy=0;entryX=0.613;entryY=0.05;entryDx=0;entryDy=0;entryPerimeter=0;" parent="1" source="2" target="P2MN1hERF61_8z4mD3bg-19" edge="1">
                    <mxGeometry width="50" height="50" relative="1" as="geometry">
                        <mxPoint x="140" y="570" as="sourcePoint"/>
                        <mxPoint x="190" y="520" as="targetPoint"/>
                    </mxGeometry>
                </mxCell>
                <mxCell id="P2MN1hERF61_8z4mD3bg-19" value="&quot;68 Centerton Rd&quot;^^&amp;lt;http://www.w3.org/2001/XMLSchema#string&amp;gt;" style="ellipse;whiteSpace=wrap;html=1;" parent="1" vertex="1">
                    <mxGeometry x="-70" y="607.5" width="390" height="30" as="geometry"/>
                </mxCell>
                <mxCell id="12" value="&quot;true&quot;^^&amp;lt;http://www.w3.org/2001/XMLSchema#boolean&amp;gt;" style="ellipse;whiteSpace=wrap;html=1;" parent="1" vertex="1">
                    <mxGeometry x="1170" y="335" width="340" height="30" as="geometry"/>
                </mxCell>
                <mxCell id="P2MN1hERF61_8z4mD3bg-20" value="&amp;lt;https://schema.org/streetAddress&amp;gt;" style="text;whiteSpace=wrap;html=1;" parent="1" vertex="1">
                    <mxGeometry x="150" y="520" width="220" height="30" as="geometry"/>
                </mxCell>
                <mxCell id="P2MN1hERF61_8z4mD3bg-21" value="&quot;08054&quot;^^&amp;lt;http://www.w3.org/2001/XMLSchema#string&amp;gt;" style="ellipse;whiteSpace=wrap;html=1;" parent="1" vertex="1">
                    <mxGeometry x="-260" y="437.5" width="320" height="35" as="geometry"/>
                </mxCell>
                <mxCell id="P2MN1hERF61_8z4mD3bg-22" value="" style="endArrow=classic;html=1;entryX=1;entryY=0.5;entryDx=0;entryDy=0;exitX=0;exitY=0.5;exitDx=0;exitDy=0;" parent="1" source="2" target="P2MN1hERF61_8z4mD3bg-21" edge="1">
                    <mxGeometry width="50" height="50" relative="1" as="geometry">
                        <mxPoint x="300" y="510" as="sourcePoint"/>
                        <mxPoint x="350" y="460" as="targetPoint"/>
                    </mxGeometry>
                </mxCell>
                <mxCell id="P2MN1hERF61_8z4mD3bg-23" value="&amp;lt;https://schema.org/postalCode&amp;gt;" style="text;whiteSpace=wrap;html=1;" parent="1" vertex="1">
                    <mxGeometry x="104" y="435" width="200" height="30" as="geometry"/>
                </mxCell>
                <mxCell id="P2MN1hERF61_8z4mD3bg-25" value="&quot;T J Maxx&quot;^^&amp;lt;http://www.w3.org/2001/XMLSchema#string&amp;gt;" style="ellipse;whiteSpace=wrap;html=1;" parent="1" vertex="1">
                    <mxGeometry x="930" y="530" width="350" height="30" as="geometry"/>
                </mxCell>
                <mxCell id="P2MN1hERF61_8z4mD3bg-26" value="" style="endArrow=classic;html=1;exitX=0.9;exitY=0.833;exitDx=0;exitDy=0;exitPerimeter=0;entryX=0;entryY=0.5;entryDx=0;entryDy=0;" parent="1" source="2" target="P2MN1hERF61_8z4mD3bg-25" edge="1">
                    <mxGeometry width="50" height="50" relative="1" as="geometry">
                        <mxPoint x="970" y="500" as="sourcePoint"/>
                        <mxPoint x="1020" y="450" as="targetPoint"/>
                    </mxGeometry>
                </mxCell>
                <mxCell id="P2MN1hERF61_8z4mD3bg-27" value="&amp;lt;https://schema.org/legalName&amp;gt;" style="text;whiteSpace=wrap;html=1;" parent="1" vertex="1">
                    <mxGeometry x="660" y="480" width="200" height="30" as="geometry"/>
                </mxCell>
                <mxCell id="P2MN1hERF61_8z4mD3bg-29" value="&quot;4.5&quot;^^&amp;lt;http://www.w3.org/2001/XMLSchema#string&amp;gt;" style="ellipse;whiteSpace=wrap;html=1;" parent="1" vertex="1">
                    <mxGeometry x="-190" y="390" width="340" height="20" as="geometry"/>
                </mxCell>
                <mxCell id="P2MN1hERF61_8z4mD3bg-32" value="&amp;lt;https://schema.org/starRating&amp;gt;" style="text;whiteSpace=wrap;html=1;" parent="1" vertex="1">
                    <mxGeometry x="120" y="407.5" width="200" height="30" as="geometry"/>
                </mxCell>
                <mxCell id="P2MN1hERF61_8z4mD3bg-34" value="&#10;&#10;&lt;span style=&quot;color: rgb(0, 0, 0); font-family: helvetica; font-size: 12px; font-style: normal; font-weight: 400; letter-spacing: normal; text-align: left; text-indent: 0px; text-transform: none; word-spacing: 0px; background-color: rgb(248, 249, 250); display: inline; float: none;&quot;&gt;&amp;lt;http://dbpedia.org/resource/New_Jersey&amp;gt;&lt;/span&gt;&#10;&#10;" style="ellipse;whiteSpace=wrap;html=1;" parent="1" vertex="1">
                    <mxGeometry x="125" y="295" width="260" height="30" as="geometry"/>
                </mxCell>
                <mxCell id="P2MN1hERF61_8z4mD3bg-35" value="" style="endArrow=classic;html=1;exitX=0.309;exitY=-0.033;exitDx=0;exitDy=0;exitPerimeter=0;entryX=0.831;entryY=0.933;entryDx=0;entryDy=0;entryPerimeter=0;" parent="1" source="2" target="P2MN1hERF61_8z4mD3bg-34" edge="1">
                    <mxGeometry width="50" height="50" relative="1" as="geometry">
                        <mxPoint x="370" y="500" as="sourcePoint"/>
                        <mxPoint x="240" y="320" as="targetPoint"/>
                    </mxGeometry>
                </mxCell>
                <mxCell id="P2MN1hERF61_8z4mD3bg-36" value="&amp;lt;https://schema.org/addressRegion&amp;gt;" style="text;whiteSpace=wrap;html=1;" parent="1" vertex="1">
                    <mxGeometry x="250" y="365" width="220" height="30" as="geometry"/>
                </mxCell>
                <mxCell id="17" value="_:business_att_BusinessParking_Lot95413" style="ellipse;whiteSpace=wrap;html=1;" parent="1" vertex="1">
                    <mxGeometry x="540" y="250" width="290" height="30" as="geometry"/>
                </mxCell>
                <mxCell id="18" value="" style="endArrow=classic;html=1;entryX=0.5;entryY=1;entryDx=0;entryDy=0;exitX=0.706;exitY=0;exitDx=0;exitDy=0;exitPerimeter=0;" parent="1" source="2" target="17" edge="1">
                    <mxGeometry width="50" height="50" relative="1" as="geometry">
                        <mxPoint x="820" y="530" as="sourcePoint"/>
                        <mxPoint x="870" y="480" as="targetPoint"/>
                    </mxGeometry>
                </mxCell>
                <mxCell id="20" value="" style="edgeStyle=none;html=1;exitX=1;exitY=0;exitDx=0;exitDy=0;" parent="1" source="17" target="23" edge="1">
                    <mxGeometry relative="1" as="geometry">
                        <mxPoint x="820" y="200" as="sourcePoint"/>
                    </mxGeometry>
                </mxCell>
                <mxCell id="21" value="&amp;lt;http://dbpedia.org/resource/Parking_lot&amp;gt;" style="ellipse;whiteSpace=wrap;html=1;" parent="1" vertex="1">
                    <mxGeometry x="1001" y="120" width="249" height="30" as="geometry"/>
                </mxCell>
                <mxCell id="22" value="&amp;lt;https://schema.org/value&amp;gt;" style="text;whiteSpace=wrap;html=1;" parent="1" vertex="1">
                    <mxGeometry x="839" y="220" width="170" height="30" as="geometry"/>
                </mxCell>
                <mxCell id="23" value="&quot;true&quot;^^&amp;lt;http://www.w3.org/2001/XMLSchema#boolean&amp;gt;" style="ellipse;whiteSpace=wrap;html=1;" parent="1" vertex="1">
                    <mxGeometry x="981" y="185" width="340" height="30" as="geometry"/>
                </mxCell>
                <mxCell id="25" value="&amp;lt;https://schema.org/additionalType&amp;gt;" style="text;whiteSpace=wrap;html=1;" parent="1" vertex="1">
                    <mxGeometry x="760" y="170" width="220" height="30" as="geometry"/>
                </mxCell>
                <mxCell id="26" value="" style="endArrow=classic;html=1;exitX=0.5;exitY=0;exitDx=0;exitDy=0;entryX=0;entryY=0.5;entryDx=0;entryDy=0;" parent="1" source="17" target="21" edge="1">
                    <mxGeometry width="50" height="50" relative="1" as="geometry">
                        <mxPoint x="750" y="185" as="sourcePoint"/>
                        <mxPoint x="800" y="135" as="targetPoint"/>
                    </mxGeometry>
                </mxCell>
                <mxCell id="33" style="edgeStyle=none;html=1;entryX=0;entryY=1;entryDx=0;entryDy=0;exitX=1;exitY=0;exitDx=0;exitDy=0;" parent="1" source="28" target="32" edge="1">
                    <mxGeometry relative="1" as="geometry"/>
                </mxCell>
                <mxCell id="37" style="edgeStyle=none;html=1;entryX=0.5;entryY=1;entryDx=0;entryDy=0;exitX=0.5;exitY=0;exitDx=0;exitDy=0;" parent="1" source="28" target="35" edge="1">
                    <mxGeometry relative="1" as="geometry"/>
                </mxCell>
                <mxCell id="28" value="_:business_att_BikeParking95413" style="ellipse;whiteSpace=wrap;html=1;" parent="1" vertex="1">
                    <mxGeometry x="364" y="215" width="220" height="30" as="geometry"/>
                </mxCell>
                <mxCell id="31" value="&amp;lt;https://schema.org/ParkingFacility&amp;gt;" style="text;whiteSpace=wrap;html=1;" parent="1" vertex="1">
                    <mxGeometry x="370" y="320" width="220" height="30" as="geometry"/>
                </mxCell>
                <mxCell id="32" value="&quot;false&quot;^^&amp;lt;http://www.w3.org/2001/XMLSchema#boolean&amp;gt;" style="ellipse;whiteSpace=wrap;html=1;" parent="1" vertex="1">
                    <mxGeometry x="600" y="90" width="335" height="30" as="geometry"/>
                </mxCell>
                <mxCell id="34" value="&amp;lt;https://schema.org/value&amp;gt;" style="text;whiteSpace=wrap;html=1;" parent="1" vertex="1">
                    <mxGeometry x="520" y="155" width="170" height="30" as="geometry"/>
                </mxCell>
                <mxCell id="35" value="&amp;lt;http://dbpedia.org/resource/Bicycle&amp;gt;" style="ellipse;whiteSpace=wrap;html=1;" parent="1" vertex="1">
                    <mxGeometry x="400" y="65" width="220" height="25" as="geometry"/>
                </mxCell>
                <mxCell id="40" value="&amp;lt;https://schema.org/additionalType&amp;gt;" style="text;whiteSpace=wrap;html=1;" parent="1" vertex="1">
                    <mxGeometry x="390" y="120" width="220" height="30" as="geometry"/>
                </mxCell>
                <mxCell id="46" style="edgeStyle=none;html=1;entryX=0.5;entryY=1;entryDx=0;entryDy=0;exitX=1;exitY=0;exitDx=0;exitDy=0;" parent="1" source="41" target="44" edge="1">
                    <mxGeometry relative="1" as="geometry"/>
                </mxCell>
                <mxCell id="47" style="edgeStyle=none;html=1;entryX=0.5;entryY=1;entryDx=0;entryDy=0;" parent="1" source="41" target="45" edge="1">
                    <mxGeometry relative="1" as="geometry"/>
                </mxCell>
                <mxCell id="41" value="_:business_att_BusinessParking_Valet95413" style="ellipse;whiteSpace=wrap;html=1;" parent="1" vertex="1">
                    <mxGeometry x="95" y="185" width="290" height="30" as="geometry"/>
                </mxCell>
                <mxCell id="42" value="" style="endArrow=classic;html=1;exitX=0.421;exitY=0.033;exitDx=0;exitDy=0;exitPerimeter=0;entryX=1;entryY=1;entryDx=0;entryDy=0;" parent="1" source="2" target="41" edge="1">
                    <mxGeometry width="50" height="50" relative="1" as="geometry">
                        <mxPoint x="550" y="370" as="sourcePoint"/>
                        <mxPoint x="600" y="320" as="targetPoint"/>
                    </mxGeometry>
                </mxCell>
                <mxCell id="43" value="&amp;lt;https://schema.org/ParkingFacility&amp;gt;" style="text;whiteSpace=wrap;html=1;" parent="1" vertex="1">
                    <mxGeometry x="240" y="260" width="220" height="30" as="geometry"/>
                </mxCell>
                <mxCell id="44" value="&quot;false&quot;^^&amp;lt;http://www.w3.org/2001/XMLSchema#boolean&amp;gt;" style="ellipse;whiteSpace=wrap;html=1;" parent="1" vertex="1">
                    <mxGeometry x="170" y="30" width="340" height="30" as="geometry"/>
                </mxCell>
                <mxCell id="45" value="&quot;Valet&quot;^^&amp;lt;http://www.w3.org/2001/XMLSchema#string&amp;gt;" style="ellipse;whiteSpace=wrap;html=1;" parent="1" vertex="1">
                    <mxGeometry x="-70" y="80" width="330" height="30" as="geometry"/>
                </mxCell>
                <mxCell id="48" value="&amp;lt;https://schema.org/value&amp;gt;" style="text;whiteSpace=wrap;html=1;" parent="1" vertex="1">
                    <mxGeometry x="230" y="130" width="170" height="30" as="geometry"/>
                </mxCell>
                <mxCell id="49" value="&amp;lt;https://schema.org/additionalType&amp;gt;" style="text;whiteSpace=wrap;html=1;" parent="1" vertex="1">
                    <mxGeometry x="40" y="120" width="220" height="30" as="geometry"/>
                </mxCell>
                <mxCell id="55" style="edgeStyle=none;html=1;entryX=0.5;entryY=1;entryDx=0;entryDy=0;" parent="1" source="50" target="54" edge="1">
                    <mxGeometry relative="1" as="geometry"/>
                </mxCell>
                <mxCell id="57" style="edgeStyle=none;html=1;entryX=0.5;entryY=1;entryDx=0;entryDy=0;exitX=0.133;exitY=0.357;exitDx=0;exitDy=0;exitPerimeter=0;" parent="1" source="50" target="53" edge="1">
                    <mxGeometry relative="1" as="geometry"/>
                </mxCell>
                <mxCell id="50" value="_:business_att_BusinessParking_Validated95413" style="ellipse;whiteSpace=wrap;html=1;" parent="1" vertex="1">
                    <mxGeometry x="-260" y="217.5" width="300" height="35" as="geometry"/>
                </mxCell>
                <mxCell id="P2MN1hERF61_8z4mD3bg-51" value="&quot;2016-06-11 17:04:36&quot;^^&amp;lt;http://www.w3.org/2001/XMLSchema#dateTime&amp;gt;" style="ellipse;whiteSpace=wrap;html=1;" parent="1" vertex="1">
                    <mxGeometry x="220" y="700" width="460" height="20" as="geometry"/>
                </mxCell>
                <mxCell id="52" value="&amp;lt;https://schema.org/ParkingFacility&amp;gt;" style="text;whiteSpace=wrap;html=1;" parent="1" vertex="1">
                    <mxGeometry x="-50" y="260" width="220" height="30" as="geometry"/>
                </mxCell>
                <mxCell id="P2MN1hERF61_8z4mD3bg-53" value="" style="endArrow=classic;html=1;exitX=0.541;exitY=1;exitDx=0;exitDy=0;exitPerimeter=0;entryX=0.5;entryY=0;entryDx=0;entryDy=0;" parent="1" source="2" target="Cdz1tfNSAMJjp_Mq3CtY-5" edge="1">
                    <mxGeometry width="50" height="50" relative="1" as="geometry">
                        <mxPoint x="569.1399999999999" y="479.00999999999976" as="sourcePoint"/>
                        <mxPoint x="707" y="614.9949999999999" as="targetPoint"/>
                    </mxGeometry>
                </mxCell>
                <mxCell id="53" value="&quot;Validated&quot;^^&amp;lt;http://www.w3.org/2001/XMLSchema#string&amp;gt;" style="ellipse;whiteSpace=wrap;html=1;" parent="1" vertex="1">
                    <mxGeometry x="-420" y="60" width="330" height="30" as="geometry"/>
                </mxCell>
                <mxCell id="54" value="&quot;false&quot;^^&amp;lt;http://www.w3.org/2001/XMLSchema#boolean&amp;gt;" style="ellipse;whiteSpace=wrap;html=1;" parent="1" vertex="1">
                    <mxGeometry x="-236" y="10" width="340" height="30" as="geometry"/>
                </mxCell>
                <mxCell id="56" value="&amp;lt;https://schema.org/value&amp;gt;" style="text;whiteSpace=wrap;html=1;" parent="1" vertex="1">
                    <mxGeometry x="-160" y="130" width="170" height="30" as="geometry"/>
                </mxCell>
                <mxCell id="58" value="&amp;lt;https://schema.org/additionalType&amp;gt;" style="text;whiteSpace=wrap;html=1;" parent="1" vertex="1">
                    <mxGeometry x="-340" y="150" width="220" height="30" as="geometry"/>
                </mxCell>
                <mxCell id="P2MN1hERF61_8z4mD3bg-59" value="&lt;span&gt;Footnote 1&lt;/span&gt;" style="rounded=1;whiteSpace=wrap;html=1;" parent="1" vertex="1">
                    <mxGeometry x="410" y="720" width="80" height="20" as="geometry"/>
                </mxCell>
                <mxCell id="P2MN1hERF61_8z4mD3bg-60" value="" style="endArrow=classic;html=1;exitX=0.342;exitY=1;exitDx=0;exitDy=0;exitPerimeter=0;entryX=0.5;entryY=0;entryDx=0;entryDy=0;" parent="1" source="2" target="P2MN1hERF61_8z4mD3bg-51" edge="1">
                    <mxGeometry width="50" height="50" relative="1" as="geometry">
                        <mxPoint x="360" y="780" as="sourcePoint"/>
                        <mxPoint x="410" y="730" as="targetPoint"/>
                    </mxGeometry>
                </mxCell>
                <mxCell id="P2MN1hERF61_8z4mD3bg-61" value="&amp;lt;https://schema.org/startTime&amp;gt;" style="text;whiteSpace=wrap;html=1;" parent="1" vertex="1">
                    <mxGeometry x="364" y="600" width="190" height="30" as="geometry"/>
                </mxCell>
                <mxCell id="65" style="edgeStyle=none;html=1;entryX=0;entryY=0;entryDx=0;entryDy=0;" parent="1" source="59" target="63" edge="1">
                    <mxGeometry relative="1" as="geometry"/>
                </mxCell>
                <mxCell id="66" style="edgeStyle=none;html=1;" parent="1" source="59" target="62" edge="1">
                    <mxGeometry relative="1" as="geometry"/>
                </mxCell>
                <mxCell id="59" value="_:business_att_CreditCards95413" style="ellipse;whiteSpace=wrap;html=1;" parent="1" vertex="1">
                    <mxGeometry x="1060" y="400" width="260" height="30" as="geometry"/>
                </mxCell>
                <mxCell id="61" value="&amp;lt;https://schema.org/paymentAccepted&amp;gt;" style="text;whiteSpace=wrap;html=1;" parent="1" vertex="1">
                    <mxGeometry x="810" y="415" width="240" height="30" as="geometry"/>
                </mxCell>
                <mxCell id="FuRV-bk0ZiEyzxOxWIwT-94" style="edgeStyle=none;html=1;exitX=0;exitY=0.5;exitDx=0;exitDy=0;entryX=0.596;entryY=-0.09;entryDx=0;entryDy=0;entryPerimeter=0;" edge="1" parent="1" source="P2MN1hERF61_8z4mD3bg-64" target="FuRV-bk0ZiEyzxOxWIwT-86">
                    <mxGeometry relative="1" as="geometry"/>
                </mxCell>
                <mxCell id="FuRV-bk0ZiEyzxOxWIwT-95" style="edgeStyle=none;html=1;exitX=0;exitY=1;exitDx=0;exitDy=0;entryX=0.961;entryY=0.341;entryDx=0;entryDy=0;entryPerimeter=0;" edge="1" parent="1" source="P2MN1hERF61_8z4mD3bg-64" target="FuRV-bk0ZiEyzxOxWIwT-86">
                    <mxGeometry relative="1" as="geometry"/>
                </mxCell>
                <mxCell id="FuRV-bk0ZiEyzxOxWIwT-96" style="edgeStyle=none;html=1;exitX=0.279;exitY=0.949;exitDx=0;exitDy=0;entryX=0.837;entryY=1.008;entryDx=0;entryDy=0;entryPerimeter=0;exitPerimeter=0;" edge="1" parent="1" source="P2MN1hERF61_8z4mD3bg-64" target="FuRV-bk0ZiEyzxOxWIwT-86">
                    <mxGeometry relative="1" as="geometry"/>
                </mxCell>
                <mxCell id="P2MN1hERF61_8z4mD3bg-64" value="&amp;lt;https://www.yelp.com/user_details?userid=KWKXZsjb-45fUyvvpM2ZBg&amp;gt;" style="ellipse;whiteSpace=wrap;html=1;" parent="1" vertex="1">
                    <mxGeometry x="-101" y="880" width="410" height="30" as="geometry"/>
                </mxCell>
                <mxCell id="62" value="&quot;Credit_Card&quot;^^&amp;lt;http://www.w3.org/2001/XMLSchema#string&amp;gt;" style="ellipse;whiteSpace=wrap;html=1;" parent="1" vertex="1">
                    <mxGeometry x="1570" y="395" width="420" height="35" as="geometry"/>
                </mxCell>
                <mxCell id="63" value="&quot;true&quot;^^&amp;lt;http://www.w3.org/2001/XMLSchema#boolean&amp;gt;" style="ellipse;whiteSpace=wrap;html=1;" parent="1" vertex="1">
                    <mxGeometry x="1410" y="495" width="350" height="35" as="geometry"/>
                </mxCell>
                <mxCell id="67" value="&amp;lt;https://schema.org/additionalType&amp;gt;" style="text;whiteSpace=wrap;html=1;" parent="1" vertex="1">
                    <mxGeometry x="1350" y="395" width="220" height="30" as="geometry"/>
                </mxCell>
                <mxCell id="P2MN1hERF61_8z4mD3bg-67" value="_:52559" style="ellipse;whiteSpace=wrap;html=1;" parent="1" vertex="1">
                    <mxGeometry x="154" y="745" width="60" height="20" as="geometry"/>
                </mxCell>
                <mxCell id="P2MN1hERF61_8z4mD3bg-68" value="&quot;2012-08-19 19:02:05&quot;^^&amp;lt;http://www.w3.org/2001/XMLSchema#dateTime&amp;gt;" style="ellipse;whiteSpace=wrap;html=1;" parent="1" vertex="1">
                    <mxGeometry x="420" y="745" width="440" height="20" as="geometry"/>
                </mxCell>
                <mxCell id="P2MN1hERF61_8z4mD3bg-69" value="&quot;The lady at the fitting room could be a little less....aggressive?&quot;^^&amp;lt;http://www.w3.org/2001/XMLSchema#string&amp;gt;" style="ellipse;whiteSpace=wrap;html=1;" parent="1" vertex="1">
                    <mxGeometry x="400" y="830" width="390" height="60" as="geometry"/>
                </mxCell>
                <mxCell id="68" value="&amp;lt;https://schema.org/value&amp;gt;" style="text;whiteSpace=wrap;html=1;rotation=0;" parent="1" vertex="1">
                    <mxGeometry x="1280" y="450" width="170" height="30" as="geometry"/>
                </mxCell>
                <mxCell id="P2MN1hERF61_8z4mD3bg-70" value="&quot;0&quot;^^&amp;lt;http://www.w3.org/2001/XMLSchema#int&amp;gt;" style="ellipse;whiteSpace=wrap;html=1;" parent="1" vertex="1">
                    <mxGeometry x="-430" y="740" width="280" height="30" as="geometry"/>
                </mxCell>
                <mxCell id="P2MN1hERF61_8z4mD3bg-71" value="" style="endArrow=classic;html=1;exitX=0.5;exitY=0;exitDx=0;exitDy=0;entryX=0.351;entryY=1.041;entryDx=0;entryDy=0;entryPerimeter=0;" parent="1" source="P2MN1hERF61_8z4mD3bg-64" target="P2MN1hERF61_8z4mD3bg-67" edge="1">
                    <mxGeometry width="50" height="50" relative="1" as="geometry">
                        <mxPoint x="170" y="905" as="sourcePoint"/>
                        <mxPoint x="220" y="855" as="targetPoint"/>
                    </mxGeometry>
                </mxCell>
                <mxCell id="P2MN1hERF61_8z4mD3bg-72" value="" style="endArrow=classic;html=1;entryX=-0.004;entryY=0.407;entryDx=0;entryDy=0;entryPerimeter=0;exitX=0.75;exitY=0.909;exitDx=0;exitDy=0;exitPerimeter=0;" parent="1" source="P2MN1hERF61_8z4mD3bg-67" target="P2MN1hERF61_8z4mD3bg-69" edge="1">
                    <mxGeometry width="50" height="50" relative="1" as="geometry">
                        <mxPoint x="311" y="780" as="sourcePoint"/>
                        <mxPoint x="360" y="715" as="targetPoint"/>
                    </mxGeometry>
                </mxCell>
                <mxCell id="P2MN1hERF61_8z4mD3bg-73" value="" style="endArrow=classic;html=1;exitX=1;exitY=0.5;exitDx=0;exitDy=0;entryX=0;entryY=0.5;entryDx=0;entryDy=0;" parent="1" source="P2MN1hERF61_8z4mD3bg-67" target="P2MN1hERF61_8z4mD3bg-68" edge="1">
                    <mxGeometry width="50" height="50" relative="1" as="geometry">
                        <mxPoint x="290" y="735" as="sourcePoint"/>
                        <mxPoint x="340" y="685" as="targetPoint"/>
                    </mxGeometry>
                </mxCell>
                <mxCell id="P2MN1hERF61_8z4mD3bg-74" value="" style="endArrow=classic;html=1;exitX=0;exitY=0.5;exitDx=0;exitDy=0;entryX=1;entryY=0.5;entryDx=0;entryDy=0;" parent="1" source="P2MN1hERF61_8z4mD3bg-67" target="P2MN1hERF61_8z4mD3bg-70" edge="1">
                    <mxGeometry width="50" height="50" relative="1" as="geometry">
                        <mxPoint x="270" y="895" as="sourcePoint"/>
                        <mxPoint x="320" y="845" as="targetPoint"/>
                    </mxGeometry>
                </mxCell>
                <mxCell id="P2MN1hERF61_8z4mD3bg-78" value="&amp;lt;https://schema.org/about&amp;gt;" style="text;whiteSpace=wrap;html=1;" parent="1" vertex="1">
                    <mxGeometry x="175" y="655" width="170" height="30" as="geometry"/>
                </mxCell>
                <mxCell id="P2MN1hERF61_8z4mD3bg-79" value="&amp;lt;https://www.yelp.com/kg/tip/compliment_count&amp;gt;" style="text;whiteSpace=wrap;html=1;" parent="1" vertex="1">
                    <mxGeometry x="-120" y="730" width="280" height="30" as="geometry"/>
                </mxCell>
                <mxCell id="P2MN1hERF61_8z4mD3bg-81" value="&amp;lt;https://schema.org/author&amp;gt;" style="text;whiteSpace=wrap;html=1;" parent="1" vertex="1">
                    <mxGeometry x="30" y="825" width="180" height="30" as="geometry"/>
                </mxCell>
                <mxCell id="P2MN1hERF61_8z4mD3bg-82" value="&amp;lt;https://schema.org/dateCreated&amp;gt;" style="text;whiteSpace=wrap;html=1;" parent="1" vertex="1">
                    <mxGeometry x="220" y="735" width="210" height="30" as="geometry"/>
                </mxCell>
                <mxCell id="P2MN1hERF61_8z4mD3bg-83" value="&amp;lt;https://schema.org/text&amp;gt;" style="text;whiteSpace=wrap;html=1;" parent="1" vertex="1">
                    <mxGeometry x="240" y="795" width="160" height="30" as="geometry"/>
                </mxCell>
                <mxCell id="w_QJRm3dM5miywSYy5Q6-80" style="edgeStyle=none;html=1;entryX=0.5;entryY=1;entryDx=0;entryDy=0;exitX=0.115;exitY=0.148;exitDx=0;exitDy=0;exitPerimeter=0;" edge="1" parent="1" source="w_QJRm3dM5miywSYy5Q6-68" target="w_QJRm3dM5miywSYy5Q6-69">
                    <mxGeometry relative="1" as="geometry"/>
                </mxCell>
                <mxCell id="w_QJRm3dM5miywSYy5Q6-82" style="edgeStyle=none;html=1;entryX=0.5;entryY=0;entryDx=0;entryDy=0;" edge="1" parent="1" source="w_QJRm3dM5miywSYy5Q6-68" target="w_QJRm3dM5miywSYy5Q6-79">
                    <mxGeometry relative="1" as="geometry"/>
                </mxCell>
                <mxCell id="w_QJRm3dM5miywSYy5Q6-85" value="" style="edgeStyle=none;html=1;exitX=0.085;exitY=0.836;exitDx=0;exitDy=0;exitPerimeter=0;entryX=0.5;entryY=0;entryDx=0;entryDy=0;" edge="1" parent="1" source="w_QJRm3dM5miywSYy5Q6-68" target="w_QJRm3dM5miywSYy5Q6-84">
                    <mxGeometry relative="1" as="geometry"/>
                </mxCell>
                <mxCell id="w_QJRm3dM5miywSYy5Q6-68" value="&amp;lt;https://www.yelp.com/biz/CpCFYyWjzo0CKbum1ZJiMw?hrid=Hgy1SY8rLWZr4It90szWrw&amp;gt;" style="ellipse;whiteSpace=wrap;html=1;" vertex="1" parent="1">
                    <mxGeometry x="-455" y="559.5" width="550" height="30.5" as="geometry"/>
                </mxCell>
                <mxCell id="w_QJRm3dM5miywSYy5Q6-69" value="&quot;5.0&quot;^^&amp;lt;http://www.w3.org/2001/XMLSchema#float&amp;gt;" style="ellipse;whiteSpace=wrap;html=1;" vertex="1" parent="1">
                    <mxGeometry x="-710" y="480" width="320" height="30" as="geometry"/>
                </mxCell>
                <mxCell id="w_QJRm3dM5miywSYy5Q6-70" value="&quot;0&quot;^^&amp;lt;http://www.w3.org/2001/XMLSchema#int&amp;gt;" style="ellipse;whiteSpace=wrap;html=1;" vertex="1" parent="1">
                    <mxGeometry x="-236" y="510" width="306" height="30" as="geometry"/>
                </mxCell>
                <mxCell id="w_QJRm3dM5miywSYy5Q6-72" value="" style="endArrow=classic;html=1;exitX=0.052;exitY=0.767;exitDx=0;exitDy=0;exitPerimeter=0;entryX=1;entryY=0;entryDx=0;entryDy=0;" edge="1" parent="1" source="2" target="w_QJRm3dM5miywSYy5Q6-70">
                    <mxGeometry width="50" height="50" relative="1" as="geometry">
                        <mxPoint x="-30" y="650" as="sourcePoint"/>
                        <mxPoint x="20" y="600" as="targetPoint"/>
                    </mxGeometry>
                </mxCell>
                <mxCell id="w_QJRm3dM5miywSYy5Q6-74" value="&amp;lt;https://www.yelp.com/kg/review/votes_count/cool&amp;gt;" style="text;whiteSpace=wrap;html=1;" vertex="1" parent="1">
                    <mxGeometry x="-10" y="480" width="300" height="30" as="geometry"/>
                </mxCell>
                <mxCell id="w_QJRm3dM5miywSYy5Q6-75" value="" style="endArrow=classic;html=1;exitX=1;exitY=0;exitDx=0;exitDy=0;entryX=0.106;entryY=0.833;entryDx=0;entryDy=0;entryPerimeter=0;" edge="1" parent="1" source="w_QJRm3dM5miywSYy5Q6-68" target="2">
                    <mxGeometry width="50" height="50" relative="1" as="geometry">
                        <mxPoint y="650" as="sourcePoint"/>
                        <mxPoint x="50" y="600" as="targetPoint"/>
                    </mxGeometry>
                </mxCell>
                <mxCell id="w_QJRm3dM5miywSYy5Q6-76" value="&amp;lt;https://schema.org/itemReviewed&amp;gt;" style="text;whiteSpace=wrap;html=1;" vertex="1" parent="1">
                    <mxGeometry x="95" y="497.5" width="220" height="30" as="geometry"/>
                </mxCell>
                <mxCell id="w_QJRm3dM5miywSYy5Q6-79" value="&amp;lt;https://www.yelp.com/user_details?userid=fpHUpxSWuM3DdgxvzBlkYg&amp;gt;" style="ellipse;whiteSpace=wrap;html=1;" vertex="1" parent="1">
                    <mxGeometry x="-595" y="668" width="430" height="32.5" as="geometry"/>
                </mxCell>
                <mxCell id="w_QJRm3dM5miywSYy5Q6-81" value="&amp;lt;https://schema.org/starRating&amp;gt;" style="text;whiteSpace=wrap;html=1;" vertex="1" parent="1">
                    <mxGeometry x="-540" y="527.5" width="200" height="30" as="geometry"/>
                </mxCell>
                <mxCell id="w_QJRm3dM5miywSYy5Q6-83" value="&amp;lt;https://schema.org/author&amp;gt;" style="text;whiteSpace=wrap;html=1;" vertex="1" parent="1">
                    <mxGeometry x="-353" y="600" width="180" height="30" as="geometry"/>
                </mxCell>
                <mxCell id="w_QJRm3dM5miywSYy5Q6-84" value="&quot;I cannot tell [. . .] I love this store!&quot;^^&amp;lt;http://www.w3.org/2001/XMLSchema#string&amp;gt;" style="ellipse;whiteSpace=wrap;html=1;" vertex="1" parent="1">
                    <mxGeometry x="-810" y="620" width="480" height="30" as="geometry"/>
                </mxCell>
                <mxCell id="w_QJRm3dM5miywSYy5Q6-86" value="&amp;lt;https://schema.org/text&amp;gt;" style="text;whiteSpace=wrap;html=1;" vertex="1" parent="1">
                    <mxGeometry x="-570" y="590" width="160" height="30" as="geometry"/>
                </mxCell>
                <mxCell id="FuRV-bk0ZiEyzxOxWIwT-68" value="&quot;3.73&quot;^^&amp;lt;http://www.w3.org/2001/XMLSchema#float&amp;gt;" style="ellipse;whiteSpace=wrap;html=1;" vertex="1" parent="1">
                    <mxGeometry x="-170" y="1320" width="314" height="40" as="geometry"/>
                </mxCell>
                <mxCell id="FuRV-bk0ZiEyzxOxWIwT-69" value="&quot;Kam&quot;^^&amp;lt;http://www.w3.org/2001/XMLSchema#string&amp;gt;" style="ellipse;whiteSpace=wrap;html=1;" vertex="1" parent="1">
                    <mxGeometry x="170" y="1340" width="314" height="30" as="geometry"/>
                </mxCell>
                <mxCell id="FuRV-bk0ZiEyzxOxWIwT-71" value="&quot;2012-04-29 19:08:40&quot;^^&amp;lt;http://www.w3.org/2001/XMLSchema#dateTime&amp;gt;" style="ellipse;whiteSpace=wrap;html=1;" vertex="1" parent="1">
                    <mxGeometry x="390" y="1300" width="430" height="30" as="geometry"/>
                </mxCell>
                <mxCell id="FuRV-bk0ZiEyzxOxWIwT-76" value="&quot;4&quot;^^&amp;lt;http://www.w3.org/2001/XMLSchema#int&amp;gt;" style="ellipse;whiteSpace=wrap;html=1;" vertex="1" parent="1">
                    <mxGeometry x="739" y="1080" width="274" height="30" as="geometry"/>
                </mxCell>
                <mxCell id="FuRV-bk0ZiEyzxOxWIwT-77" value="&quot;21&quot;^^&amp;lt;http://www.w3.org/2001/XMLSchema#int&amp;gt;" style="ellipse;whiteSpace=wrap;html=1;" vertex="1" parent="1">
                    <mxGeometry x="707" y="1140" width="274" height="30" as="geometry"/>
                </mxCell>
                <mxCell id="FuRV-bk0ZiEyzxOxWIwT-78" value="&quot;82&quot;^^&amp;lt;http://www.w3.org/2001/XMLSchema#int&amp;gt;" style="ellipse;whiteSpace=wrap;html=1;" vertex="1" parent="1">
                    <mxGeometry x="639" y="1190" width="274" height="30" as="geometry"/>
                </mxCell>
                <mxCell id="FuRV-bk0ZiEyzxOxWIwT-79" value="&quot;1&quot;^^&amp;lt;http://www.w3.org/2001/XMLSchema#int&amp;gt;" style="ellipse;whiteSpace=wrap;html=1;" vertex="1" parent="1">
                    <mxGeometry x="548" y="1250" width="274" height="30" as="geometry"/>
                </mxCell>
                <mxCell id="FuRV-bk0ZiEyzxOxWIwT-81" value="&quot;0&quot;^^&amp;lt;http://www.w3.org/2001/XMLSchema#int&amp;gt;" style="ellipse;whiteSpace=wrap;html=1;" vertex="1" parent="1">
                    <mxGeometry x="-284" y="1280" width="274" height="30" as="geometry"/>
                </mxCell>
                <mxCell id="FuRV-bk0ZiEyzxOxWIwT-82" value="&quot;62&quot;^^&amp;lt;http://www.w3.org/2001/XMLSchema#int&amp;gt;" style="ellipse;whiteSpace=wrap;html=1;" vertex="1" parent="1">
                    <mxGeometry x="-439" y="1230" width="274" height="30" as="geometry"/>
                </mxCell>
                <mxCell id="FuRV-bk0ZiEyzxOxWIwT-83" value="&quot;2&quot;^^&amp;lt;http://www.w3.org/2001/XMLSchema#int&amp;gt;" style="ellipse;whiteSpace=wrap;html=1;" vertex="1" parent="1">
                    <mxGeometry x="-517" y="1170" width="274" height="30" as="geometry"/>
                </mxCell>
                <mxCell id="FuRV-bk0ZiEyzxOxWIwT-85" value="&quot;17&quot;^^&amp;lt;http://www.w3.org/2001/XMLSchema#int&amp;gt;" style="ellipse;whiteSpace=wrap;html=1;" vertex="1" parent="1">
                    <mxGeometry x="-604" y="1090" width="274" height="30" as="geometry"/>
                </mxCell>
                <mxCell id="FuRV-bk0ZiEyzxOxWIwT-86" value="3&quot;^^&amp;lt;http://www.w3.org/2001/XMLSchema#int&amp;gt;" style="ellipse;whiteSpace=wrap;html=1;" vertex="1" parent="1">
                    <mxGeometry x="-604" y="910" width="274" height="30" as="geometry"/>
                </mxCell>
                <mxCell id="FuRV-bk0ZiEyzxOxWIwT-87" value="&quot;&quot;^^&amp;lt;http://www.w3.org/2001/XMLSchema#year&amp;gt;" style="ellipse;whiteSpace=wrap;html=1;" vertex="1" parent="1">
                    <mxGeometry x="-595" y="1010" width="274" height="30" as="geometry"/>
                </mxCell>
                <mxCell id="w_QJRm3dM5miywSYy5Q6-87" value="&quot;0&quot;^^&amp;lt;http://www.w3.org/2001/XMLSchema#int&amp;gt;" style="ellipse;whiteSpace=wrap;html=1;" vertex="1" parent="1">
                    <mxGeometry x="-270" y="292.5" width="261" height="35" as="geometry"/>
                </mxCell>
                <mxCell id="w_QJRm3dM5miywSYy5Q6-91" value="" style="endArrow=classic;html=1;exitX=0.182;exitY=0.133;exitDx=0;exitDy=0;exitPerimeter=0;entryX=1;entryY=0.675;entryDx=0;entryDy=0;entryPerimeter=0;" edge="1" parent="1" source="2" target="w_QJRm3dM5miywSYy5Q6-87">
                    <mxGeometry width="50" height="50" relative="1" as="geometry">
                        <mxPoint x="190" y="280" as="sourcePoint"/>
                        <mxPoint x="240" y="230" as="targetPoint"/>
                    </mxGeometry>
                </mxCell>
                <mxCell id="w_QJRm3dM5miywSYy5Q6-92" value="&amp;lt;https://www.yelp.com/kg/review/votes_count/funny&amp;gt;" style="text;whiteSpace=wrap;html=1;" vertex="1" parent="1">
                    <mxGeometry x="-54" y="340" width="310" height="30" as="geometry"/>
                </mxCell>
                <mxCell id="w_QJRm3dM5miywSYy5Q6-94" value="&quot;2016-02-05 22:55:43&quot;^^&amp;lt;http://www.w3.org/2001/XMLSchema#dateTime&amp;gt;" style="ellipse;whiteSpace=wrap;html=1;" vertex="1" parent="1">
                    <mxGeometry x="-655" y="375" width="430" height="35" as="geometry"/>
                </mxCell>
                <mxCell id="w_QJRm3dM5miywSYy5Q6-96" value="" style="endArrow=classic;html=1;exitX=0.204;exitY=0.148;exitDx=0;exitDy=0;exitPerimeter=0;" edge="1" parent="1" source="w_QJRm3dM5miywSYy5Q6-68" target="w_QJRm3dM5miywSYy5Q6-94">
                    <mxGeometry width="50" height="50" relative="1" as="geometry">
                        <mxPoint x="-210" y="380" as="sourcePoint"/>
                        <mxPoint x="-160" y="330" as="targetPoint"/>
                    </mxGeometry>
                </mxCell>
                <mxCell id="w_QJRm3dM5miywSYy5Q6-97" value="&amp;lt;https://schema.org/dateCreated&amp;gt;" style="text;whiteSpace=wrap;html=1;" vertex="1" parent="1">
                    <mxGeometry x="-506" y="437.5" width="210" height="30" as="geometry"/>
                </mxCell>
                <mxCell id="w_QJRm3dM5miywSYy5Q6-98" value="&quot;0&quot;^^&amp;lt;http://www.w3.org/2001/XMLSchema#int&amp;gt;" style="ellipse;whiteSpace=wrap;html=1;" vertex="1" parent="1">
                    <mxGeometry x="1070" y="607" width="300" height="30.5" as="geometry"/>
                </mxCell>
                <mxCell id="w_QJRm3dM5miywSYy5Q6-99" value="" style="endArrow=classic;html=1;entryX=0;entryY=0.5;entryDx=0;entryDy=0;exitX=0.827;exitY=1.067;exitDx=0;exitDy=0;exitPerimeter=0;" edge="1" parent="1" source="2" target="w_QJRm3dM5miywSYy5Q6-98">
                    <mxGeometry width="50" height="50" relative="1" as="geometry">
                        <mxPoint x="620" y="380" as="sourcePoint"/>
                        <mxPoint x="670" y="330" as="targetPoint"/>
                    </mxGeometry>
                </mxCell>
                <mxCell id="w_QJRm3dM5miywSYy5Q6-100" value="&amp;lt;https://www.yelp.com/kg/review/votes_count/useful&amp;gt;" style="text;whiteSpace=wrap;html=1;" vertex="1" parent="1">
                    <mxGeometry x="790" y="570" width="310" height="30" as="geometry"/>
                </mxCell>
                <mxCell id="w_QJRm3dM5miywSYy5Q6-101" value="&amp;lt;https://www.yelp.com/biz/CpCFYyWjzo0CKbum1ZJiMw&amp;gt;" style="ellipse;whiteSpace=wrap;html=1;" vertex="1" parent="1">
                    <mxGeometry x="-790" y="760" width="360" height="30" as="geometry"/>
                </mxCell>
                <mxCell id="w_QJRm3dM5miywSYy5Q6-102" value="" style="endArrow=classic;html=1;exitX=0;exitY=1;exitDx=0;exitDy=0;entryX=0.5;entryY=0;entryDx=0;entryDy=0;" edge="1" parent="1" source="w_QJRm3dM5miywSYy5Q6-79" target="w_QJRm3dM5miywSYy5Q6-101">
                    <mxGeometry width="50" height="50" relative="1" as="geometry">
                        <mxPoint x="-740" y="580" as="sourcePoint"/>
                        <mxPoint x="-690" y="530" as="targetPoint"/>
                    </mxGeometry>
                </mxCell>
                <mxCell id="w_QJRm3dM5miywSYy5Q6-103" value="&amp;lt;https://schema.org/itemReviewed&amp;gt;" style="text;whiteSpace=wrap;html=1;" vertex="1" parent="1">
                    <mxGeometry x="-650" y="720" width="220" height="30" as="geometry"/>
                </mxCell>
                <mxCell id="FuRV-bk0ZiEyzxOxWIwT-97" value="" style="endArrow=classic;html=1;exitX=0.308;exitY=1.027;exitDx=0;exitDy=0;exitPerimeter=0;entryX=1;entryY=0;entryDx=0;entryDy=0;" edge="1" parent="1" source="P2MN1hERF61_8z4mD3bg-64" target="FuRV-bk0ZiEyzxOxWIwT-87">
                    <mxGeometry width="50" height="50" relative="1" as="geometry">
                        <mxPoint x="-20" y="1070" as="sourcePoint"/>
                        <mxPoint x="30" y="1020" as="targetPoint"/>
                    </mxGeometry>
                </mxCell>
                <mxCell id="FuRV-bk0ZiEyzxOxWIwT-98" value="" style="endArrow=classic;html=1;exitX=0.374;exitY=1.027;exitDx=0;exitDy=0;exitPerimeter=0;entryX=1;entryY=0;entryDx=0;entryDy=0;" edge="1" parent="1" source="P2MN1hERF61_8z4mD3bg-64" target="FuRV-bk0ZiEyzxOxWIwT-85">
                    <mxGeometry width="50" height="50" relative="1" as="geometry">
                        <mxPoint x="-60" y="1120" as="sourcePoint"/>
                        <mxPoint x="-10" y="1070" as="targetPoint"/>
                    </mxGeometry>
                </mxCell>
                <mxCell id="FuRV-bk0ZiEyzxOxWIwT-99" value="" style="endArrow=classic;html=1;exitX=0.405;exitY=1.027;exitDx=0;exitDy=0;exitPerimeter=0;entryX=0.5;entryY=0;entryDx=0;entryDy=0;" edge="1" parent="1" source="P2MN1hERF61_8z4mD3bg-64" target="FuRV-bk0ZiEyzxOxWIwT-83">
                    <mxGeometry width="50" height="50" relative="1" as="geometry">
                        <mxPoint x="-130" y="1160" as="sourcePoint"/>
                        <mxPoint x="-80" y="1110" as="targetPoint"/>
                    </mxGeometry>
                </mxCell>
                <mxCell id="FuRV-bk0ZiEyzxOxWIwT-100" value="" style="endArrow=classic;html=1;exitX=0.474;exitY=1.067;exitDx=0;exitDy=0;exitPerimeter=0;entryX=0.978;entryY=0.263;entryDx=0;entryDy=0;entryPerimeter=0;" edge="1" parent="1" source="P2MN1hERF61_8z4mD3bg-64" target="FuRV-bk0ZiEyzxOxWIwT-83">
                    <mxGeometry width="50" height="50" relative="1" as="geometry">
                        <mxPoint x="133.42999999999972" y="940" as="sourcePoint"/>
                        <mxPoint x="-235.99599999999975" y="1200" as="targetPoint"/>
                    </mxGeometry>
                </mxCell>
                <mxCell id="FuRV-bk0ZiEyzxOxWIwT-101" value="" style="endArrow=classic;html=1;exitX=0.5;exitY=1;exitDx=0;exitDy=0;entryX=1;entryY=0;entryDx=0;entryDy=0;" edge="1" parent="1" source="P2MN1hERF61_8z4mD3bg-64" target="FuRV-bk0ZiEyzxOxWIwT-82">
                    <mxGeometry width="50" height="50" relative="1" as="geometry">
                        <mxPoint x="-90" y="1220" as="sourcePoint"/>
                        <mxPoint x="-40" y="1170" as="targetPoint"/>
                    </mxGeometry>
                </mxCell>
                <mxCell id="FuRV-bk0ZiEyzxOxWIwT-102" value="" style="endArrow=classic;html=1;exitX=0.529;exitY=0.988;exitDx=0;exitDy=0;exitPerimeter=0;entryX=0.403;entryY=0.047;entryDx=0;entryDy=0;entryPerimeter=0;" edge="1" parent="1" source="P2MN1hERF61_8z4mD3bg-64" target="FuRV-bk0ZiEyzxOxWIwT-81">
                    <mxGeometry width="50" height="50" relative="1" as="geometry">
                        <mxPoint x="-60" y="1240" as="sourcePoint"/>
                        <mxPoint x="-10" y="1190" as="targetPoint"/>
                    </mxGeometry>
                </mxCell>
                <mxCell id="FuRV-bk0ZiEyzxOxWIwT-103" value="" style="endArrow=classic;html=1;exitX=0.554;exitY=1.027;exitDx=0;exitDy=0;exitPerimeter=0;entryX=0.566;entryY=-0.031;entryDx=0;entryDy=0;entryPerimeter=0;" edge="1" parent="1" source="P2MN1hERF61_8z4mD3bg-64" target="FuRV-bk0ZiEyzxOxWIwT-81">
                    <mxGeometry width="50" height="50" relative="1" as="geometry">
                        <mxPoint x="125.88999999999942" y="919.6399999999999" as="sourcePoint"/>
                        <mxPoint x="-163.57799999999952" y="1291.4099999999999" as="targetPoint"/>
                    </mxGeometry>
                </mxCell>
                <mxCell id="FuRV-bk0ZiEyzxOxWIwT-104" value="" style="endArrow=classic;html=1;exitX=0.603;exitY=1.027;exitDx=0;exitDy=0;exitPerimeter=0;entryX=0.703;entryY=0.047;entryDx=0;entryDy=0;entryPerimeter=0;" edge="1" parent="1" source="P2MN1hERF61_8z4mD3bg-64" target="FuRV-bk0ZiEyzxOxWIwT-81">
                    <mxGeometry width="50" height="50" relative="1" as="geometry">
                        <mxPoint x="135.88999999999942" y="929.6399999999999" as="sourcePoint"/>
                        <mxPoint x="-153.57799999999952" y="1301.4099999999999" as="targetPoint"/>
                    </mxGeometry>
                </mxCell>
                <mxCell id="FuRV-bk0ZiEyzxOxWIwT-105" value="" style="endArrow=classic;html=1;exitX=0.678;exitY=0.988;exitDx=0;exitDy=0;exitPerimeter=0;entryX=0.935;entryY=0.282;entryDx=0;entryDy=0;entryPerimeter=0;" edge="1" parent="1" source="P2MN1hERF61_8z4mD3bg-64" target="FuRV-bk0ZiEyzxOxWIwT-81">
                    <mxGeometry width="50" height="50" relative="1" as="geometry">
                        <mxPoint x="145.88999999999942" y="939.6399999999999" as="sourcePoint"/>
                        <mxPoint x="-143.57799999999952" y="1311.4099999999999" as="targetPoint"/>
                    </mxGeometry>
                </mxCell>
                <mxCell id="FuRV-bk0ZiEyzxOxWIwT-106" value="" style="endArrow=classic;html=1;exitX=0.738;exitY=0.988;exitDx=0;exitDy=0;exitPerimeter=0;entryX=1;entryY=0;entryDx=0;entryDy=0;" edge="1" parent="1" source="P2MN1hERF61_8z4mD3bg-64" target="FuRV-bk0ZiEyzxOxWIwT-68">
                    <mxGeometry width="50" height="50" relative="1" as="geometry">
                        <mxPoint x="220" y="1280" as="sourcePoint"/>
                        <mxPoint x="270" y="1230" as="targetPoint"/>
                    </mxGeometry>
                </mxCell>
                <mxCell id="FuRV-bk0ZiEyzxOxWIwT-107" value="" style="endArrow=classic;html=1;exitX=0.795;exitY=0.871;exitDx=0;exitDy=0;exitPerimeter=0;entryX=0.5;entryY=0;entryDx=0;entryDy=0;" edge="1" parent="1" source="P2MN1hERF61_8z4mD3bg-64" target="FuRV-bk0ZiEyzxOxWIwT-69">
                    <mxGeometry width="50" height="50" relative="1" as="geometry">
                        <mxPoint x="250" y="1120" as="sourcePoint"/>
                        <mxPoint x="300" y="1070" as="targetPoint"/>
                    </mxGeometry>
                </mxCell>
                <mxCell id="FuRV-bk0ZiEyzxOxWIwT-108" value="" style="endArrow=classic;html=1;exitX=1;exitY=1;exitDx=0;exitDy=0;entryX=0.233;entryY=0;entryDx=0;entryDy=0;entryPerimeter=0;" edge="1" parent="1" source="P2MN1hERF61_8z4mD3bg-64" target="FuRV-bk0ZiEyzxOxWIwT-71">
                    <mxGeometry width="50" height="50" relative="1" as="geometry">
                        <mxPoint x="410" y="1150" as="sourcePoint"/>
                        <mxPoint x="460" y="1100" as="targetPoint"/>
                    </mxGeometry>
                </mxCell>
                <mxCell id="FuRV-bk0ZiEyzxOxWIwT-109" value="" style="endArrow=classic;html=1;exitX=0.902;exitY=0.792;exitDx=0;exitDy=0;exitPerimeter=0;entryX=0;entryY=0.5;entryDx=0;entryDy=0;" edge="1" parent="1" source="P2MN1hERF61_8z4mD3bg-64" target="FuRV-bk0ZiEyzxOxWIwT-79">
                    <mxGeometry width="50" height="50" relative="1" as="geometry">
                        <mxPoint x="460" y="1100" as="sourcePoint"/>
                        <mxPoint x="510" y="1050" as="targetPoint"/>
                    </mxGeometry>
                </mxCell>
                <mxCell id="FuRV-bk0ZiEyzxOxWIwT-110" value="" style="endArrow=classic;html=1;exitX=0.962;exitY=0.714;exitDx=0;exitDy=0;exitPerimeter=0;entryX=0;entryY=0.5;entryDx=0;entryDy=0;" edge="1" parent="1" source="P2MN1hERF61_8z4mD3bg-64">
                    <mxGeometry width="50" height="50" relative="1" as="geometry">
                        <mxPoint x="325.14999999999975" y="894.9999999999998" as="sourcePoint"/>
                        <mxPoint x="592.8499999999946" y="1252.6999999999996" as="targetPoint"/>
                    </mxGeometry>
                </mxCell>
                <mxCell id="FuRV-bk0ZiEyzxOxWIwT-111" value="" style="endArrow=classic;html=1;exitX=1;exitY=0.5;exitDx=0;exitDy=0;entryX=0;entryY=0;entryDx=0;entryDy=0;" edge="1" parent="1" source="P2MN1hERF61_8z4mD3bg-64" target="FuRV-bk0ZiEyzxOxWIwT-78">
                    <mxGeometry width="50" height="50" relative="1" as="geometry">
                        <mxPoint x="450" y="1010" as="sourcePoint"/>
                        <mxPoint x="500" y="960" as="targetPoint"/>
                    </mxGeometry>
                </mxCell>
                <mxCell id="w_QJRm3dM5miywSYy5Q6-104" value="https://www.yelp.com/kg/user/compliment_count/note&gt;" style="text;whiteSpace=wrap;html=1;" vertex="1" parent="1">
                    <mxGeometry x="-400" y="880" width="320" height="30" as="geometry"/>
                </mxCell>
                <mxCell id="FuRV-bk0ZiEyzxOxWIwT-112" value="" style="endArrow=classic;html=1;exitX=1;exitY=0.5;exitDx=0;exitDy=0;entryX=0;entryY=0;entryDx=0;entryDy=0;" edge="1" parent="1" source="P2MN1hERF61_8z4mD3bg-64" target="FuRV-bk0ZiEyzxOxWIwT-77">
                    <mxGeometry width="50" height="50" relative="1" as="geometry">
                        <mxPoint x="550" y="1030" as="sourcePoint"/>
                        <mxPoint x="600" y="980" as="targetPoint"/>
                    </mxGeometry>
                </mxCell>
                <mxCell id="w_QJRm3dM5miywSYy5Q6-107" value="&amp;lt;https://www.yelp.com/kg/user/compliment_count/funny&amp;gt;" style="text;whiteSpace=wrap;html=1;" vertex="1" parent="1">
                    <mxGeometry x="-380" y="895" width="330" height="30" as="geometry"/>
                </mxCell>
                <mxCell id="w_QJRm3dM5miywSYy5Q6-108" value="&amp;lt;https://www.yelp.com/kg/user/compliment_count/cool&amp;gt;" style="text;whiteSpace=wrap;html=1;" vertex="1" parent="1">
                    <mxGeometry x="-340" y="910" width="320" height="30" as="geometry"/>
                </mxCell>
                <mxCell id="FuRV-bk0ZiEyzxOxWIwT-113" value="" style="endArrow=classic;html=1;exitX=1;exitY=0.5;exitDx=0;exitDy=0;entryX=0;entryY=0;entryDx=0;entryDy=0;" edge="1" parent="1" source="P2MN1hERF61_8z4mD3bg-64" target="FuRV-bk0ZiEyzxOxWIwT-76">
                    <mxGeometry width="50" height="50" relative="1" as="geometry">
                        <mxPoint x="620" y="1040" as="sourcePoint"/>
                        <mxPoint x="670" y="990" as="targetPoint"/>
                    </mxGeometry>
                </mxCell>
                <mxCell id="w_QJRm3dM5miywSYy5Q6-109" value="&amp;lt;https://www.yelp.com/kg/user/elite&amp;gt;" style="text;whiteSpace=wrap;html=1;" vertex="1" parent="1">
                    <mxGeometry x="-310" y="950" width="220" height="30" as="geometry"/>
                </mxCell>
                <mxCell id="w_QJRm3dM5miywSYy5Q6-110" value="&amp;lt;https://www.yelp.com/kg/user/votes_count/funny&amp;gt;" style="text;whiteSpace=wrap;html=1;" vertex="1" parent="1">
                    <mxGeometry x="-480" y="1050" width="300" height="30" as="geometry"/>
                </mxCell>
                <mxCell id="w_QJRm3dM5miywSYy5Q6-111" value="&amp;lt;https://www.yelp.com/kg/user/compliment_count/more&amp;gt;" style="text;whiteSpace=wrap;html=1;" vertex="1" parent="1">
                    <mxGeometry x="-467" y="1130" width="330" height="30" as="geometry"/>
                </mxCell>
                <mxCell id="w_QJRm3dM5miywSYy5Q6-112" value="&amp;lt;https://www.yelp.com/kg/user/votes_count/fans&amp;gt;" style="text;whiteSpace=wrap;html=1;" vertex="1" parent="1">
                    <mxGeometry x="-292" y="1070" width="290" height="30" as="geometry"/>
                </mxCell>
                <mxCell id="w_QJRm3dM5miywSYy5Q6-113" value="&amp;lt;https://schema.org/reviewCount&amp;gt;" style="text;whiteSpace=wrap;html=1;" vertex="1" parent="1">
                    <mxGeometry x="-215" y="1120" width="210" height="30" as="geometry"/>
                </mxCell>
                <mxCell id="w_QJRm3dM5miywSYy5Q6-114" value="&amp;lt;https://www.yelp.com/kg/user/compliment_count/list&amp;gt;" style="text;whiteSpace=wrap;html=1;" vertex="1" parent="1">
                    <mxGeometry x="-265" y="1200" width="310" height="30" as="geometry"/>
                </mxCell>
                <mxCell id="w_QJRm3dM5miywSYy5Q6-115" value="&amp;lt;https://www.yelp.com/kg/user/compliment_count/profile&amp;gt;" style="text;whiteSpace=wrap;html=1;" vertex="1" parent="1">
                    <mxGeometry x="-240" y="1170" width="330" height="30" as="geometry"/>
                </mxCell>
                <mxCell id="w_QJRm3dM5miywSYy5Q6-116" value="&amp;lt;https://www.yelp.com/kg/user/compliment_count/writer&amp;gt;" style="text;whiteSpace=wrap;html=1;" vertex="1" parent="1">
                    <mxGeometry x="-185" y="1140" width="330" height="30" as="geometry"/>
                </mxCell>
                <mxCell id="w_QJRm3dM5miywSYy5Q6-117" value="&amp;lt;https://www.yelp.com/kg/user/compliment_count/photos&amp;gt;" style="text;whiteSpace=wrap;html=1;" vertex="1" parent="1">
                    <mxGeometry x="-110" y="1110" width="340" height="30" as="geometry"/>
                </mxCell>
                <mxCell id="w_QJRm3dM5miywSYy5Q6-118" value="&amp;lt;https://www.yelp.com/kg/user/average_stars&amp;gt;" style="text;whiteSpace=wrap;html=1;" vertex="1" parent="1">
                    <mxGeometry x="-9" y="1210" width="270" height="30" as="geometry"/>
                </mxCell>
                <mxCell id="w_QJRm3dM5miywSYy5Q6-119" value="&amp;lt;https://schema.org/givenName&amp;gt;" style="text;whiteSpace=wrap;html=1;" vertex="1" parent="1">
                    <mxGeometry x="175" y="1160" width="200" height="30" as="geometry"/>
                </mxCell>
                <mxCell id="w_QJRm3dM5miywSYy5Q6-121" value="&amp;lt;https://www.yelp.com/kg/user/compliment_count/cute&amp;gt;" style="text;whiteSpace=wrap;html=1;" vertex="1" parent="1">
                    <mxGeometry x="290" y="1140" width="320" height="30" as="geometry"/>
                </mxCell>
                <mxCell id="w_QJRm3dM5miywSYy5Q6-122" value="&amp;lt;https://www.yelp.com/kg/user/compliment_count/hot&amp;gt;" style="text;whiteSpace=wrap;html=1;" vertex="1" parent="1">
                    <mxGeometry x="385" y="1170" width="320" height="30" as="geometry"/>
                </mxCell>
                <mxCell id="w_QJRm3dM5miywSYy5Q6-123" value="&amp;lt;https://www.yelp.com/kg/user/votes_count/useful&amp;gt;" style="text;whiteSpace=wrap;html=1;" vertex="1" parent="1">
                    <mxGeometry x="420" y="1080" width="300" height="30" as="geometry"/>
                </mxCell>
                <mxCell id="w_QJRm3dM5miywSYy5Q6-124" value="&amp;lt;https://www.yelp.com/kg/user/votes_count/cool&amp;gt;" style="text;whiteSpace=wrap;html=1;" vertex="1" parent="1">
                    <mxGeometry x="430" y="1030" width="290" height="30" as="geometry"/>
                </mxCell>
                <mxCell id="w_QJRm3dM5miywSYy5Q6-126" value="&amp;lt;https://www.yelp.com/kg/user/compliment_count/plain&amp;gt;" style="text;whiteSpace=wrap;html=1;" vertex="1" parent="1">
                    <mxGeometry x="460" y="990" width="320" height="30" as="geometry"/>
                </mxCell>
                <mxCell id="w_QJRm3dM5miywSYy5Q6-127" value="&amp;lt;https://schema.org/startTime&amp;gt;" style="text;whiteSpace=wrap;html=1;" vertex="1" parent="1">
                    <mxGeometry x="284" y="1090" width="190" height="30" as="geometry"/>
                </mxCell>
                <mxCell id="w_QJRm3dM5miywSYy5Q6-133" value="" style="endArrow=classic;html=1;exitX=0.963;exitY=0.244;exitDx=0;exitDy=0;exitPerimeter=0;entryX=0.121;entryY=0.085;entryDx=0;entryDy=0;entryPerimeter=0;" edge="1" parent="1" source="P2MN1hERF61_8z4mD3bg-64" target="FuRV-bk0ZiEyzxOxWIwT-116">
                    <mxGeometry width="50" height="50" relative="1" as="geometry">
                        <mxPoint x="1070" y="970" as="sourcePoint"/>
                        <mxPoint x="1000.904" y="921.2500000000005" as="targetPoint"/>
                    </mxGeometry>
                </mxCell>
                <mxCell id="w_QJRm3dM5miywSYy5Q6-134" value="" style="endArrow=classic;html=1;entryX=1;entryY=0.5;entryDx=0;entryDy=0;exitX=0;exitY=0.5;exitDx=0;exitDy=0;" edge="1" parent="1" source="FuRV-bk0ZiEyzxOxWIwT-116" target="P2MN1hERF61_8z4mD3bg-64">
                    <mxGeometry width="50" height="50" relative="1" as="geometry">
                        <mxPoint x="892.167467674838" y="932.7086849573639" as="sourcePoint"/>
                        <mxPoint x="1120" y="920" as="targetPoint"/>
                    </mxGeometry>
                </mxCell>
                <mxCell id="FuRV-bk0ZiEyzxOxWIwT-116" value="https://www.yelp.com/user_details?userid=Jt3GylPuH64uA3zTdbMdCg" style="ellipse;whiteSpace=wrap;html=1;labelBackgroundColor=none;fontColor=#000000;" vertex="1" parent="1">
                    <mxGeometry x="870" y="925" width="390" height="30" as="geometry"/>
                </mxCell>
                <UserObject label="https://schema.org/knows" link="https://schema.org/knows" id="FuRV-bk0ZiEyzxOxWIwT-117">
                    <mxCell style="text;whiteSpace=wrap;html=1;fontColor=#000000;" vertex="1" parent="1">
                        <mxGeometry x="579" y="910" width="160" height="30" as="geometry"/>
                    </mxCell>
                </UserObject>
                <UserObject label="https://schema.org/knows" link="https://schema.org/knows" id="FuRV-bk0ZiEyzxOxWIwT-118">
                    <mxCell style="text;whiteSpace=wrap;html=1;fontColor=#000000;" vertex="1" parent="1">
                        <mxGeometry x="500" y="890" width="160" height="30" as="geometry"/>
                    </mxCell>
                </UserObject>
            </root>
        </mxGraphModel>
    </diagram>
</mxfile>